G04 EAGLE Gerber RS-274X export*
G75*
%MOMM*%
%FSLAX34Y34*%
%LPD*%
%INTop Copper*%
%IPPOS*%
%AMOC8*
5,1,8,0,0,1.08239X$1,22.5*%
G01*
%ADD10R,1.524000X1.524000*%
%ADD11P,1.649562X8X202.500000*%
%ADD12R,1.676400X1.676400*%
%ADD13C,1.676400*%
%ADD14C,4.016000*%
%ADD15C,1.400000*%
%ADD16R,0.800000X0.800000*%
%ADD17C,1.960000*%
%ADD18R,1.031241X0.949959*%
%ADD19R,1.288000X1.288000*%
%ADD20C,1.288000*%
%ADD21C,3.220000*%
%ADD22C,4.445000*%
%ADD23C,1.016000*%
%ADD24R,0.949959X1.031241*%
%ADD25C,0.254000*%
%ADD26C,0.609600*%
%ADD27C,0.609600*%

G36*
X886444Y1190108D02*
X886444Y1190108D01*
X886437Y1190227D01*
X886424Y1190265D01*
X886419Y1190306D01*
X886376Y1190416D01*
X886339Y1190529D01*
X886317Y1190564D01*
X886302Y1190601D01*
X886233Y1190697D01*
X886169Y1190798D01*
X886139Y1190826D01*
X886116Y1190859D01*
X886024Y1190935D01*
X885937Y1191016D01*
X885902Y1191036D01*
X885871Y1191061D01*
X885763Y1191112D01*
X885659Y1191170D01*
X885619Y1191180D01*
X885583Y1191197D01*
X885466Y1191219D01*
X885351Y1191249D01*
X885291Y1191253D01*
X885271Y1191257D01*
X885250Y1191255D01*
X885190Y1191259D01*
X3810Y1191259D01*
X3692Y1191244D01*
X3573Y1191237D01*
X3535Y1191224D01*
X3494Y1191219D01*
X3384Y1191176D01*
X3271Y1191139D01*
X3236Y1191117D01*
X3199Y1191102D01*
X3103Y1191033D01*
X3002Y1190969D01*
X2974Y1190939D01*
X2941Y1190916D01*
X2865Y1190824D01*
X2784Y1190737D01*
X2764Y1190702D01*
X2739Y1190671D01*
X2688Y1190563D01*
X2630Y1190459D01*
X2620Y1190419D01*
X2603Y1190383D01*
X2581Y1190266D01*
X2551Y1190151D01*
X2547Y1190091D01*
X2543Y1190071D01*
X2545Y1190050D01*
X2541Y1189990D01*
X2541Y3810D01*
X2556Y3692D01*
X2563Y3573D01*
X2576Y3535D01*
X2581Y3494D01*
X2624Y3384D01*
X2661Y3271D01*
X2683Y3236D01*
X2698Y3199D01*
X2767Y3103D01*
X2831Y3002D01*
X2861Y2974D01*
X2884Y2941D01*
X2976Y2865D01*
X3063Y2784D01*
X3098Y2764D01*
X3129Y2739D01*
X3237Y2688D01*
X3341Y2630D01*
X3381Y2620D01*
X3417Y2603D01*
X3534Y2581D01*
X3649Y2551D01*
X3709Y2547D01*
X3729Y2543D01*
X3750Y2545D01*
X3810Y2541D01*
X885190Y2541D01*
X885308Y2556D01*
X885427Y2563D01*
X885465Y2576D01*
X885506Y2581D01*
X885616Y2624D01*
X885729Y2661D01*
X885764Y2683D01*
X885801Y2698D01*
X885897Y2767D01*
X885998Y2831D01*
X886026Y2861D01*
X886059Y2884D01*
X886135Y2976D01*
X886216Y3063D01*
X886236Y3098D01*
X886261Y3129D01*
X886312Y3237D01*
X886370Y3341D01*
X886380Y3381D01*
X886397Y3417D01*
X886419Y3534D01*
X886449Y3649D01*
X886453Y3709D01*
X886457Y3729D01*
X886455Y3750D01*
X886459Y3810D01*
X886459Y1189990D01*
X886444Y1190108D01*
G37*
%LPC*%
G36*
X76200Y1116331D02*
X76200Y1116331D01*
X76298Y1116343D01*
X76397Y1116346D01*
X76455Y1116363D01*
X76516Y1116371D01*
X76608Y1116407D01*
X76703Y1116435D01*
X76755Y1116465D01*
X76811Y1116488D01*
X76891Y1116546D01*
X76977Y1116596D01*
X77052Y1116662D01*
X77069Y1116674D01*
X77076Y1116684D01*
X77098Y1116703D01*
X89798Y1129403D01*
X89858Y1129481D01*
X89926Y1129553D01*
X89955Y1129606D01*
X89992Y1129654D01*
X90032Y1129745D01*
X90080Y1129831D01*
X90095Y1129890D01*
X90119Y1129946D01*
X90134Y1130044D01*
X90159Y1130139D01*
X90165Y1130239D01*
X90169Y1130260D01*
X90167Y1130272D01*
X90169Y1130300D01*
X90169Y1167131D01*
X811531Y1167131D01*
X811531Y1117600D01*
X811546Y1117482D01*
X811553Y1117363D01*
X811566Y1117325D01*
X811571Y1117284D01*
X811614Y1117174D01*
X811651Y1117061D01*
X811673Y1117026D01*
X811688Y1116989D01*
X811758Y1116893D01*
X811821Y1116792D01*
X811851Y1116764D01*
X811874Y1116731D01*
X811966Y1116656D01*
X812053Y1116574D01*
X812088Y1116554D01*
X812119Y1116529D01*
X812227Y1116478D01*
X812331Y1116420D01*
X812371Y1116410D01*
X812407Y1116393D01*
X812524Y1116371D01*
X812639Y1116341D01*
X812700Y1116337D01*
X812720Y1116333D01*
X812740Y1116335D01*
X812800Y1116331D01*
X875031Y1116331D01*
X875031Y661669D01*
X863600Y661669D01*
X863482Y661654D01*
X863363Y661647D01*
X863325Y661634D01*
X863284Y661629D01*
X863174Y661586D01*
X863061Y661549D01*
X863026Y661527D01*
X862989Y661512D01*
X862893Y661443D01*
X862792Y661379D01*
X862764Y661349D01*
X862731Y661326D01*
X862656Y661234D01*
X862574Y661147D01*
X862554Y661112D01*
X862529Y661081D01*
X862478Y660973D01*
X862420Y660869D01*
X862410Y660829D01*
X862393Y660793D01*
X862371Y660676D01*
X862341Y660561D01*
X862337Y660501D01*
X862333Y660481D01*
X862335Y660460D01*
X862331Y660400D01*
X862331Y299393D01*
X862343Y299295D01*
X862346Y299196D01*
X862363Y299138D01*
X862371Y299078D01*
X862407Y298986D01*
X862434Y298891D01*
X862465Y298838D01*
X862488Y298782D01*
X862546Y298702D01*
X862596Y298617D01*
X862663Y298541D01*
X862674Y298525D01*
X862684Y298517D01*
X862702Y298496D01*
X862757Y298442D01*
X862856Y298364D01*
X862951Y298282D01*
X862981Y298267D01*
X863008Y298247D01*
X863123Y298197D01*
X863236Y298140D01*
X863269Y298133D01*
X863300Y298120D01*
X863424Y298100D01*
X863547Y298074D01*
X863581Y298075D01*
X863614Y298070D01*
X863739Y298082D01*
X863865Y298087D01*
X863897Y298097D01*
X863930Y298100D01*
X864049Y298143D01*
X864169Y298179D01*
X864198Y298196D01*
X864230Y298207D01*
X864334Y298278D01*
X864442Y298343D01*
X864465Y298367D01*
X864493Y298386D01*
X864576Y298480D01*
X864664Y298570D01*
X864691Y298611D01*
X864703Y298624D01*
X864713Y298644D01*
X864753Y298704D01*
X864818Y298816D01*
X865291Y299289D01*
X865870Y299624D01*
X866517Y299797D01*
X869227Y299797D01*
X869227Y293205D01*
X869242Y293087D01*
X869249Y292968D01*
X869262Y292930D01*
X869267Y292890D01*
X869311Y292779D01*
X869347Y292666D01*
X869369Y292631D01*
X869384Y292594D01*
X869454Y292498D01*
X869517Y292397D01*
X869547Y292369D01*
X869571Y292337D01*
X869662Y292261D01*
X869749Y292179D01*
X869784Y292160D01*
X869816Y292134D01*
X869880Y292104D01*
X869789Y292037D01*
X869688Y291974D01*
X869660Y291944D01*
X869628Y291920D01*
X869552Y291829D01*
X869470Y291742D01*
X869451Y291707D01*
X869425Y291675D01*
X869374Y291568D01*
X869317Y291464D01*
X869306Y291424D01*
X869289Y291388D01*
X869267Y291271D01*
X869237Y291156D01*
X869233Y291095D01*
X869229Y291075D01*
X869231Y291055D01*
X869227Y290995D01*
X869227Y284403D01*
X866517Y284403D01*
X865870Y284576D01*
X865291Y284911D01*
X864818Y285384D01*
X864753Y285496D01*
X864678Y285596D01*
X864607Y285700D01*
X864581Y285722D01*
X864561Y285749D01*
X864463Y285827D01*
X864368Y285911D01*
X864338Y285926D01*
X864312Y285947D01*
X864197Y285998D01*
X864085Y286055D01*
X864052Y286062D01*
X864022Y286076D01*
X863897Y286097D01*
X863775Y286125D01*
X863741Y286124D01*
X863708Y286129D01*
X863582Y286119D01*
X863457Y286115D01*
X863424Y286106D01*
X863391Y286103D01*
X863272Y286062D01*
X863151Y286026D01*
X863122Y286009D01*
X863091Y285998D01*
X862985Y285929D01*
X862877Y285865D01*
X862841Y285833D01*
X862826Y285823D01*
X862811Y285807D01*
X862757Y285758D01*
X862702Y285704D01*
X862642Y285626D01*
X862574Y285554D01*
X862545Y285501D01*
X862507Y285453D01*
X862468Y285362D01*
X862420Y285276D01*
X862405Y285217D01*
X862381Y285161D01*
X862366Y285063D01*
X862341Y284968D01*
X862335Y284867D01*
X862331Y284847D01*
X862333Y284835D01*
X862331Y284807D01*
X862331Y241300D01*
X862346Y241182D01*
X862353Y241063D01*
X862366Y241025D01*
X862371Y240984D01*
X862414Y240874D01*
X862451Y240761D01*
X862473Y240726D01*
X862488Y240689D01*
X862558Y240593D01*
X862621Y240492D01*
X862651Y240464D01*
X862674Y240431D01*
X862766Y240356D01*
X862853Y240274D01*
X862888Y240254D01*
X862919Y240229D01*
X863027Y240178D01*
X863131Y240120D01*
X863171Y240110D01*
X863207Y240093D01*
X863324Y240071D01*
X863439Y240041D01*
X863500Y240037D01*
X863520Y240033D01*
X863540Y240035D01*
X863600Y240031D01*
X875031Y240031D01*
X875031Y69849D01*
X805180Y69849D01*
X805062Y69834D01*
X804943Y69827D01*
X804905Y69814D01*
X804864Y69809D01*
X804754Y69766D01*
X804641Y69729D01*
X804606Y69707D01*
X804569Y69692D01*
X804473Y69623D01*
X804372Y69559D01*
X804344Y69529D01*
X804311Y69506D01*
X804236Y69414D01*
X804154Y69327D01*
X804134Y69292D01*
X804109Y69261D01*
X804058Y69153D01*
X804000Y69049D01*
X803990Y69009D01*
X803973Y68973D01*
X803951Y68856D01*
X803921Y68741D01*
X803917Y68681D01*
X803913Y68661D01*
X803915Y68640D01*
X803914Y68623D01*
X803913Y68622D01*
X803913Y68621D01*
X803911Y68580D01*
X803911Y13969D01*
X90169Y13969D01*
X90169Y76200D01*
X90154Y76318D01*
X90147Y76437D01*
X90134Y76475D01*
X90129Y76516D01*
X90086Y76626D01*
X90049Y76739D01*
X90027Y76774D01*
X90012Y76811D01*
X89943Y76907D01*
X89879Y77008D01*
X89849Y77036D01*
X89826Y77069D01*
X89734Y77145D01*
X89647Y77226D01*
X89612Y77246D01*
X89581Y77271D01*
X89473Y77322D01*
X89369Y77380D01*
X89329Y77390D01*
X89293Y77407D01*
X89176Y77429D01*
X89061Y77459D01*
X89001Y77463D01*
X88981Y77467D01*
X88960Y77465D01*
X88900Y77469D01*
X13969Y77469D01*
X13969Y1116331D01*
X76200Y1116331D01*
G37*
%LPD*%
%LPC*%
G36*
X53339Y1158239D02*
X53339Y1158239D01*
X53339Y1180336D01*
X54955Y1180154D01*
X57667Y1179535D01*
X60292Y1178617D01*
X62799Y1177410D01*
X65154Y1175930D01*
X67329Y1174195D01*
X69295Y1172229D01*
X71030Y1170054D01*
X72510Y1167699D01*
X73717Y1165192D01*
X74635Y1162567D01*
X75254Y1159855D01*
X75436Y1158239D01*
X53339Y1158239D01*
G37*
%LPD*%
%LPC*%
G36*
X853439Y1158239D02*
X853439Y1158239D01*
X853439Y1180336D01*
X855055Y1180154D01*
X857767Y1179535D01*
X860392Y1178617D01*
X862899Y1177410D01*
X865254Y1175930D01*
X867429Y1174195D01*
X869395Y1172229D01*
X871130Y1170054D01*
X872610Y1167699D01*
X873817Y1165192D01*
X874735Y1162567D01*
X875354Y1159855D01*
X875536Y1158239D01*
X853439Y1158239D01*
G37*
%LPD*%
%LPC*%
G36*
X53339Y40639D02*
X53339Y40639D01*
X53339Y62736D01*
X54955Y62554D01*
X57667Y61935D01*
X60292Y61017D01*
X62799Y59810D01*
X65154Y58330D01*
X67329Y56595D01*
X69295Y54629D01*
X71030Y52454D01*
X72510Y50099D01*
X73717Y47592D01*
X74635Y44967D01*
X75254Y42255D01*
X75436Y40639D01*
X53339Y40639D01*
G37*
%LPD*%
%LPC*%
G36*
X840739Y40639D02*
X840739Y40639D01*
X840739Y62736D01*
X842355Y62554D01*
X845067Y61935D01*
X847692Y61017D01*
X850199Y59810D01*
X852554Y58330D01*
X854729Y56595D01*
X856695Y54629D01*
X858430Y52454D01*
X859910Y50099D01*
X861117Y47592D01*
X862035Y44967D01*
X862654Y42255D01*
X862836Y40639D01*
X840739Y40639D01*
G37*
%LPD*%
%LPC*%
G36*
X26164Y1158239D02*
X26164Y1158239D01*
X26346Y1159855D01*
X26965Y1162567D01*
X27883Y1165192D01*
X29090Y1167699D01*
X30570Y1170054D01*
X32305Y1172229D01*
X34271Y1174195D01*
X36446Y1175930D01*
X38801Y1177410D01*
X41308Y1178617D01*
X43933Y1179535D01*
X46645Y1180154D01*
X48261Y1180336D01*
X48261Y1158239D01*
X26164Y1158239D01*
G37*
%LPD*%
%LPC*%
G36*
X826264Y1158239D02*
X826264Y1158239D01*
X826446Y1159855D01*
X827065Y1162567D01*
X827983Y1165192D01*
X829190Y1167699D01*
X830670Y1170054D01*
X832405Y1172229D01*
X834371Y1174195D01*
X836546Y1175930D01*
X838901Y1177410D01*
X841408Y1178617D01*
X844033Y1179535D01*
X846745Y1180154D01*
X848361Y1180336D01*
X848361Y1158239D01*
X826264Y1158239D01*
G37*
%LPD*%
%LPC*%
G36*
X853439Y1153161D02*
X853439Y1153161D01*
X875536Y1153161D01*
X875354Y1151545D01*
X874735Y1148833D01*
X873817Y1146208D01*
X872610Y1143701D01*
X871130Y1141346D01*
X869395Y1139171D01*
X867429Y1137205D01*
X865254Y1135470D01*
X862899Y1133990D01*
X860392Y1132783D01*
X857767Y1131865D01*
X855055Y1131246D01*
X853439Y1131064D01*
X853439Y1153161D01*
G37*
%LPD*%
%LPC*%
G36*
X53339Y1153161D02*
X53339Y1153161D01*
X75436Y1153161D01*
X75254Y1151545D01*
X74635Y1148833D01*
X73717Y1146208D01*
X72510Y1143701D01*
X71030Y1141346D01*
X69295Y1139171D01*
X67329Y1137205D01*
X65154Y1135470D01*
X62799Y1133990D01*
X60292Y1132783D01*
X57667Y1131865D01*
X54955Y1131246D01*
X53339Y1131064D01*
X53339Y1153161D01*
G37*
%LPD*%
%LPC*%
G36*
X26164Y40639D02*
X26164Y40639D01*
X26346Y42255D01*
X26965Y44967D01*
X27883Y47592D01*
X29090Y50099D01*
X30570Y52454D01*
X32305Y54629D01*
X34271Y56595D01*
X36446Y58330D01*
X38801Y59810D01*
X41308Y61017D01*
X43933Y61935D01*
X46645Y62554D01*
X48261Y62736D01*
X48261Y40639D01*
X26164Y40639D01*
G37*
%LPD*%
%LPC*%
G36*
X813564Y40639D02*
X813564Y40639D01*
X813746Y42255D01*
X814365Y44967D01*
X815283Y47592D01*
X816490Y50099D01*
X817970Y52454D01*
X819705Y54629D01*
X821671Y56595D01*
X823846Y58330D01*
X826201Y59810D01*
X828708Y61017D01*
X831333Y61935D01*
X834045Y62554D01*
X835661Y62736D01*
X835661Y40639D01*
X813564Y40639D01*
G37*
%LPD*%
%LPC*%
G36*
X840739Y35561D02*
X840739Y35561D01*
X862836Y35561D01*
X862654Y33945D01*
X862035Y31233D01*
X861117Y28608D01*
X859910Y26101D01*
X858430Y23746D01*
X856695Y21571D01*
X854729Y19605D01*
X852554Y17870D01*
X850199Y16390D01*
X847692Y15183D01*
X845067Y14265D01*
X842355Y13646D01*
X840739Y13464D01*
X840739Y35561D01*
G37*
%LPD*%
%LPC*%
G36*
X53339Y35561D02*
X53339Y35561D01*
X75436Y35561D01*
X75254Y33945D01*
X74635Y31233D01*
X73717Y28608D01*
X72510Y26101D01*
X71030Y23746D01*
X69295Y21571D01*
X67329Y19605D01*
X65154Y17870D01*
X62799Y16390D01*
X60292Y15183D01*
X57667Y14265D01*
X54955Y13646D01*
X53339Y13464D01*
X53339Y35561D01*
G37*
%LPD*%
%LPC*%
G36*
X846745Y1131246D02*
X846745Y1131246D01*
X844033Y1131865D01*
X841408Y1132783D01*
X838901Y1133990D01*
X836546Y1135470D01*
X834371Y1137205D01*
X832405Y1139171D01*
X830670Y1141346D01*
X829190Y1143701D01*
X827983Y1146208D01*
X827065Y1148833D01*
X826446Y1151545D01*
X826264Y1153161D01*
X848361Y1153161D01*
X848361Y1131064D01*
X846745Y1131246D01*
G37*
%LPD*%
%LPC*%
G36*
X46645Y1131246D02*
X46645Y1131246D01*
X43933Y1131865D01*
X41308Y1132783D01*
X38801Y1133990D01*
X36446Y1135470D01*
X34271Y1137205D01*
X32305Y1139171D01*
X30570Y1141346D01*
X29090Y1143701D01*
X27883Y1146208D01*
X26965Y1148833D01*
X26346Y1151545D01*
X26164Y1153161D01*
X48261Y1153161D01*
X48261Y1131064D01*
X46645Y1131246D01*
G37*
%LPD*%
%LPC*%
G36*
X834045Y13646D02*
X834045Y13646D01*
X831333Y14265D01*
X828708Y15183D01*
X826201Y16390D01*
X823846Y17870D01*
X821671Y19605D01*
X819705Y21571D01*
X817970Y23746D01*
X816490Y26101D01*
X815283Y28608D01*
X814365Y31233D01*
X813746Y33945D01*
X813564Y35561D01*
X835661Y35561D01*
X835661Y13464D01*
X834045Y13646D01*
G37*
%LPD*%
%LPC*%
G36*
X46645Y13646D02*
X46645Y13646D01*
X43933Y14265D01*
X41308Y15183D01*
X38801Y16390D01*
X36446Y17870D01*
X34271Y19605D01*
X32305Y21571D01*
X30570Y23746D01*
X29090Y26101D01*
X27883Y28608D01*
X26965Y31233D01*
X26346Y33945D01*
X26164Y35561D01*
X48261Y35561D01*
X48261Y13464D01*
X46645Y13646D01*
G37*
%LPD*%
%LPC*%
G36*
X873975Y294474D02*
X873975Y294474D01*
X873975Y299797D01*
X876685Y299797D01*
X877332Y299624D01*
X877911Y299289D01*
X878384Y298816D01*
X878718Y298237D01*
X878892Y297591D01*
X878892Y294474D01*
X873975Y294474D01*
G37*
%LPD*%
%LPC*%
G36*
X873975Y284403D02*
X873975Y284403D01*
X873975Y289726D01*
X878891Y289726D01*
X878892Y286609D01*
X878718Y285963D01*
X878384Y285384D01*
X877911Y284911D01*
X877332Y284576D01*
X876685Y284403D01*
X873975Y284403D01*
G37*
%LPD*%
%LPC*%
G36*
X850899Y1155699D02*
X850899Y1155699D01*
X850899Y1155701D01*
X850901Y1155701D01*
X850901Y1155699D01*
X850899Y1155699D01*
G37*
%LPD*%
%LPC*%
G36*
X50799Y1155699D02*
X50799Y1155699D01*
X50799Y1155701D01*
X50801Y1155701D01*
X50801Y1155699D01*
X50799Y1155699D01*
G37*
%LPD*%
%LPC*%
G36*
X838199Y38099D02*
X838199Y38099D01*
X838199Y38101D01*
X838201Y38101D01*
X838201Y38099D01*
X838199Y38099D01*
G37*
%LPD*%
%LPC*%
G36*
X50799Y38099D02*
X50799Y38099D01*
X50799Y38101D01*
X50801Y38101D01*
X50801Y38099D01*
X50799Y38099D01*
G37*
%LPD*%
D10*
X537800Y568700D03*
D11*
X537800Y594100D03*
X512400Y568700D03*
X512400Y594100D03*
X487000Y568700D03*
X487000Y594100D03*
X461600Y568700D03*
X461600Y594100D03*
X436200Y568700D03*
X436200Y594100D03*
X410800Y568700D03*
X410800Y594100D03*
X385400Y568700D03*
X385400Y594100D03*
X360000Y568700D03*
X360000Y594100D03*
X334600Y568700D03*
X334600Y594100D03*
X309200Y568700D03*
X309200Y594100D03*
X283800Y568700D03*
X283800Y594100D03*
X258400Y568700D03*
X258400Y594100D03*
X233000Y568700D03*
X233000Y594100D03*
X207600Y568700D03*
X207600Y594100D03*
X182200Y568700D03*
X182200Y594100D03*
X156800Y568700D03*
X156800Y594100D03*
X131400Y568700D03*
X131400Y594100D03*
X106000Y568700D03*
X106000Y594100D03*
D10*
X537800Y822700D03*
D11*
X537800Y848100D03*
X512400Y822700D03*
X512400Y848100D03*
X487000Y822700D03*
X487000Y848100D03*
X461600Y822700D03*
X461600Y848100D03*
X436200Y822700D03*
X436200Y848100D03*
X410800Y822700D03*
X410800Y848100D03*
X385400Y822700D03*
X385400Y848100D03*
X360000Y822700D03*
X360000Y848100D03*
X334600Y822700D03*
X334600Y848100D03*
X309200Y822700D03*
X309200Y848100D03*
X283800Y822700D03*
X283800Y848100D03*
X258400Y822700D03*
X258400Y848100D03*
X233000Y822700D03*
X233000Y848100D03*
X207600Y822700D03*
X207600Y848100D03*
X182200Y822700D03*
X182200Y848100D03*
X156800Y822700D03*
X156800Y848100D03*
X131400Y822700D03*
X131400Y848100D03*
X106000Y822700D03*
X106000Y848100D03*
D12*
X66040Y916940D03*
D13*
X66040Y891540D03*
X66040Y866140D03*
X66040Y840740D03*
X66040Y815340D03*
X66040Y789940D03*
X66040Y764540D03*
X66040Y739140D03*
X66040Y713740D03*
X66040Y688340D03*
X66040Y662940D03*
X66040Y637540D03*
X66040Y612140D03*
X66040Y586740D03*
X66040Y561340D03*
X66040Y535940D03*
X66040Y510540D03*
X66040Y485140D03*
X66040Y459740D03*
X66040Y434340D03*
D14*
X66040Y961390D03*
X66040Y389890D03*
X828040Y961390D03*
X828040Y389890D03*
D15*
X749700Y88900D03*
X774700Y88900D03*
X799700Y88900D03*
X89300Y101600D03*
X114300Y101600D03*
X139300Y101600D03*
D16*
X199778Y1062228D03*
X184778Y1062228D03*
X325508Y1055624D03*
X310508Y1055624D03*
X454794Y1051306D03*
X439794Y1051306D03*
D17*
X672100Y177400D03*
X672100Y127400D03*
X547100Y127400D03*
X547100Y177400D03*
X334280Y185020D03*
X334280Y135020D03*
X209280Y135020D03*
X209280Y185020D03*
D18*
X375920Y173101D03*
X375920Y157099D03*
X508000Y173101D03*
X508000Y157099D03*
D19*
X756920Y693420D03*
D20*
X756920Y668420D03*
X756920Y648420D03*
X756920Y623420D03*
D21*
X784020Y724120D03*
X784020Y592720D03*
D22*
X850900Y1155700D03*
D23*
X127000Y38100D03*
D24*
X871601Y292100D03*
X855599Y292100D03*
D22*
X838200Y38100D03*
X50800Y38100D03*
X50800Y1155700D03*
D23*
X850900Y101600D03*
X850900Y1092200D03*
D25*
X184778Y1067428D02*
X184778Y1062228D01*
X833120Y292100D02*
X855599Y292100D01*
D26*
X833120Y292100D03*
D25*
X184778Y1014850D02*
X184778Y1062228D01*
X184778Y1014850D02*
X184404Y1014476D01*
D26*
X184404Y1014476D03*
D25*
X291592Y1036708D02*
X310508Y1055624D01*
X291592Y1036708D02*
X291592Y1009396D01*
X415036Y1026548D02*
X439794Y1051306D01*
X415036Y1026548D02*
X415036Y1010158D01*
D26*
X415036Y1010158D03*
X291592Y1009396D03*
D25*
X156800Y822700D02*
X156800Y821776D01*
X138675Y803650D01*
X105150Y803650D02*
X66040Y764540D01*
X105150Y803650D02*
X138675Y803650D01*
X120390Y793490D02*
X66040Y739140D01*
X170770Y852835D02*
X177466Y859530D01*
X249165Y848100D02*
X258400Y848100D01*
X249165Y848100D02*
X237735Y859530D01*
X143755Y793490D02*
X120390Y793490D01*
X177466Y859530D02*
X237735Y859530D01*
X170770Y820506D02*
X143755Y793490D01*
X170770Y820506D02*
X170770Y852835D01*
X632060Y543560D02*
X756920Y668420D01*
X632060Y543560D02*
X454660Y543560D01*
X436200Y562020D01*
X436200Y568700D01*
X641900Y533400D02*
X756920Y648420D01*
X446100Y533400D02*
X410800Y568700D01*
X446100Y533400D02*
X641900Y533400D01*
X330200Y931806D02*
X199778Y1062228D01*
X330200Y931806D02*
X330200Y850900D01*
X333000Y848100D01*
X334600Y848100D01*
X431800Y949332D02*
X325508Y1055624D01*
X431800Y949332D02*
X431800Y850900D01*
X434600Y848100D01*
X436200Y848100D01*
X454794Y880306D02*
X487000Y848100D01*
X454794Y880306D02*
X454794Y1051306D01*
X659400Y190100D02*
X672100Y177400D01*
X659400Y190100D02*
X559800Y190100D01*
X547100Y177400D01*
X512299Y177400D02*
X508000Y173101D01*
X512299Y177400D02*
X547100Y177400D01*
X547100Y416236D01*
X396830Y566506D01*
X396830Y596295D01*
X406066Y605530D01*
X500970Y605530D01*
X512400Y594100D01*
X375920Y157807D02*
X375920Y157099D01*
X385400Y594100D02*
X381000Y598500D01*
X381000Y622300D01*
D26*
X381000Y622300D03*
X375920Y139700D03*
D25*
X375920Y157099D01*
X508000Y157099D02*
X508000Y142240D01*
D26*
X508000Y142240D03*
D25*
X334280Y185020D02*
X209280Y185020D01*
X364001Y185020D02*
X375920Y173101D01*
X364001Y185020D02*
X334280Y185020D01*
X209280Y185020D02*
X139700Y254600D01*
X139700Y544236D02*
X117430Y566506D01*
X117430Y580130D02*
X131400Y594100D01*
X139700Y544236D02*
X139700Y254600D01*
X117430Y566506D02*
X117430Y580130D01*
D27*
X258400Y695700D02*
X385400Y822700D01*
X258400Y695700D02*
X258400Y594100D01*
X357720Y693420D02*
X756920Y693420D01*
X357720Y693420D02*
X258400Y594100D01*
D25*
X784020Y592720D02*
X784020Y724120D01*
X784020Y592720D02*
X875400Y592720D01*
M02*
