G04 EAGLE Gerber RS-274X export*
G75*
%MOMM*%
%FSLAX34Y34*%
%LPD*%
%INCopper Layer 2*%
%IPPOS*%
%AMOC8*
5,1,8,0,0,1.08239X$1,22.5*%
G01*
%ADD10C,1.244600*%
%ADD11C,1.400000*%
%ADD12C,4.016000*%
%ADD13C,1.960000*%
%ADD14C,1.288000*%
%ADD15C,3.220000*%
%ADD16C,4.191000*%
%ADD17C,0.609600*%

G36*
X885308Y2556D02*
X885308Y2556D01*
X885427Y2563D01*
X885465Y2576D01*
X885506Y2581D01*
X885616Y2624D01*
X885729Y2661D01*
X885764Y2683D01*
X885801Y2698D01*
X885897Y2767D01*
X885998Y2831D01*
X886026Y2861D01*
X886059Y2884D01*
X886135Y2976D01*
X886216Y3063D01*
X886236Y3098D01*
X886261Y3129D01*
X886312Y3237D01*
X886370Y3341D01*
X886380Y3381D01*
X886397Y3417D01*
X886419Y3534D01*
X886449Y3649D01*
X886453Y3709D01*
X886457Y3729D01*
X886455Y3750D01*
X886459Y3810D01*
X886459Y1189990D01*
X886444Y1190108D01*
X886437Y1190227D01*
X886424Y1190265D01*
X886419Y1190306D01*
X886376Y1190416D01*
X886339Y1190529D01*
X886317Y1190564D01*
X886302Y1190601D01*
X886233Y1190697D01*
X886169Y1190798D01*
X886139Y1190826D01*
X886116Y1190859D01*
X886024Y1190935D01*
X885937Y1191016D01*
X885902Y1191036D01*
X885871Y1191061D01*
X885763Y1191112D01*
X885659Y1191170D01*
X885619Y1191180D01*
X885583Y1191197D01*
X885466Y1191219D01*
X885351Y1191249D01*
X885291Y1191253D01*
X885271Y1191257D01*
X885250Y1191255D01*
X885190Y1191259D01*
X3810Y1191259D01*
X3692Y1191244D01*
X3573Y1191237D01*
X3535Y1191224D01*
X3494Y1191219D01*
X3384Y1191176D01*
X3271Y1191139D01*
X3236Y1191117D01*
X3199Y1191102D01*
X3103Y1191033D01*
X3002Y1190969D01*
X2974Y1190939D01*
X2941Y1190916D01*
X2865Y1190824D01*
X2784Y1190737D01*
X2764Y1190702D01*
X2739Y1190671D01*
X2688Y1190563D01*
X2630Y1190459D01*
X2620Y1190419D01*
X2603Y1190383D01*
X2581Y1190266D01*
X2551Y1190151D01*
X2547Y1190091D01*
X2543Y1190071D01*
X2545Y1190050D01*
X2541Y1189990D01*
X2541Y3810D01*
X2556Y3692D01*
X2563Y3573D01*
X2576Y3535D01*
X2581Y3494D01*
X2624Y3384D01*
X2661Y3271D01*
X2683Y3236D01*
X2698Y3199D01*
X2767Y3103D01*
X2831Y3002D01*
X2861Y2974D01*
X2884Y2941D01*
X2976Y2865D01*
X3063Y2784D01*
X3098Y2764D01*
X3129Y2739D01*
X3237Y2688D01*
X3341Y2630D01*
X3381Y2620D01*
X3417Y2603D01*
X3534Y2581D01*
X3649Y2551D01*
X3709Y2547D01*
X3729Y2543D01*
X3750Y2545D01*
X3810Y2541D01*
X885190Y2541D01*
X885308Y2556D01*
G37*
%LPC*%
G36*
X846226Y1132204D02*
X846226Y1132204D01*
X837591Y1135781D01*
X830981Y1142391D01*
X827404Y1151026D01*
X827404Y1160374D01*
X830981Y1169009D01*
X837591Y1175619D01*
X846226Y1179196D01*
X855574Y1179196D01*
X864209Y1175619D01*
X870819Y1169009D01*
X874396Y1160374D01*
X874396Y1151026D01*
X870819Y1142391D01*
X864209Y1135781D01*
X855574Y1132204D01*
X846226Y1132204D01*
G37*
%LPD*%
%LPC*%
G36*
X46126Y1132204D02*
X46126Y1132204D01*
X37491Y1135781D01*
X30881Y1142391D01*
X27304Y1151026D01*
X27304Y1160374D01*
X30881Y1169009D01*
X37491Y1175619D01*
X46126Y1179196D01*
X55474Y1179196D01*
X64109Y1175619D01*
X70719Y1169009D01*
X74296Y1160374D01*
X74296Y1151026D01*
X70719Y1142391D01*
X64109Y1135781D01*
X55474Y1132204D01*
X46126Y1132204D01*
G37*
%LPD*%
%LPC*%
G36*
X46126Y14604D02*
X46126Y14604D01*
X37491Y18181D01*
X30881Y24791D01*
X27304Y33426D01*
X27304Y42774D01*
X30881Y51409D01*
X37491Y58019D01*
X46126Y61596D01*
X55474Y61596D01*
X64109Y58019D01*
X70719Y51409D01*
X74296Y42774D01*
X74296Y33426D01*
X70719Y24791D01*
X64109Y18181D01*
X55474Y14604D01*
X46126Y14604D01*
G37*
%LPD*%
%LPC*%
G36*
X833526Y14604D02*
X833526Y14604D01*
X824891Y18181D01*
X818281Y24791D01*
X814704Y33426D01*
X814704Y42774D01*
X818281Y51409D01*
X824891Y58019D01*
X833526Y61596D01*
X842874Y61596D01*
X851509Y58019D01*
X858119Y51409D01*
X861696Y42774D01*
X861696Y33426D01*
X858119Y24791D01*
X851509Y18181D01*
X842874Y14604D01*
X833526Y14604D01*
G37*
%LPD*%
%LPC*%
G36*
X823540Y938769D02*
X823540Y938769D01*
X815226Y942213D01*
X808863Y948576D01*
X805419Y956890D01*
X805419Y965890D01*
X808863Y974204D01*
X815226Y980567D01*
X823540Y984011D01*
X832540Y984011D01*
X840854Y980567D01*
X847217Y974204D01*
X850661Y965890D01*
X850661Y956890D01*
X847217Y948576D01*
X840854Y942213D01*
X832540Y938769D01*
X823540Y938769D01*
G37*
%LPD*%
%LPC*%
G36*
X61540Y938769D02*
X61540Y938769D01*
X53226Y942213D01*
X46863Y948576D01*
X43419Y956890D01*
X43419Y965890D01*
X46863Y974204D01*
X53226Y980567D01*
X61540Y984011D01*
X70540Y984011D01*
X78854Y980567D01*
X85217Y974204D01*
X88661Y965890D01*
X88661Y956890D01*
X85217Y948576D01*
X78854Y942213D01*
X70540Y938769D01*
X61540Y938769D01*
G37*
%LPD*%
%LPC*%
G36*
X61540Y367269D02*
X61540Y367269D01*
X53226Y370713D01*
X46863Y377076D01*
X43419Y385390D01*
X43419Y394390D01*
X46863Y402704D01*
X53226Y409067D01*
X61540Y412511D01*
X70540Y412511D01*
X78854Y409067D01*
X85217Y402704D01*
X88661Y394390D01*
X88661Y385390D01*
X85217Y377076D01*
X78854Y370713D01*
X70540Y367269D01*
X61540Y367269D01*
G37*
%LPD*%
%LPC*%
G36*
X823540Y367269D02*
X823540Y367269D01*
X815226Y370713D01*
X808863Y377076D01*
X805419Y385390D01*
X805419Y394390D01*
X808863Y402704D01*
X815226Y409067D01*
X823540Y412511D01*
X832540Y412511D01*
X840854Y409067D01*
X847217Y402704D01*
X850661Y394390D01*
X850661Y385390D01*
X847217Y377076D01*
X840854Y370713D01*
X832540Y367269D01*
X823540Y367269D01*
G37*
%LPD*%
%LPC*%
G36*
X780312Y574079D02*
X780312Y574079D01*
X773461Y576917D01*
X768217Y582161D01*
X765379Y589012D01*
X765379Y596428D01*
X768217Y603279D01*
X773461Y608523D01*
X780312Y611361D01*
X787728Y611361D01*
X794579Y608523D01*
X799823Y603279D01*
X802661Y596428D01*
X802661Y589012D01*
X799823Y582161D01*
X794579Y576917D01*
X787728Y574079D01*
X780312Y574079D01*
G37*
%LPD*%
%LPC*%
G36*
X780312Y705479D02*
X780312Y705479D01*
X773461Y708317D01*
X768217Y713561D01*
X765379Y720412D01*
X765379Y727828D01*
X768217Y734679D01*
X773461Y739923D01*
X780312Y742761D01*
X787728Y742761D01*
X794579Y739923D01*
X799823Y734679D01*
X802661Y727828D01*
X802661Y720412D01*
X799823Y713561D01*
X794579Y708317D01*
X787728Y705479D01*
X780312Y705479D01*
G37*
%LPD*%
%LPC*%
G36*
X721708Y143859D02*
X721708Y143859D01*
X716180Y146149D01*
X711949Y150380D01*
X709659Y155908D01*
X709659Y161892D01*
X711949Y167420D01*
X716180Y171651D01*
X721708Y173941D01*
X727692Y173941D01*
X733220Y171651D01*
X737451Y167420D01*
X739741Y161892D01*
X739741Y155908D01*
X737451Y150380D01*
X733220Y146149D01*
X727692Y143859D01*
X721708Y143859D01*
G37*
%LPD*%
%LPC*%
G36*
X821708Y143859D02*
X821708Y143859D01*
X816180Y146149D01*
X811949Y150380D01*
X809659Y155908D01*
X809659Y161892D01*
X811949Y167420D01*
X816180Y171651D01*
X821708Y173941D01*
X827692Y173941D01*
X833220Y171651D01*
X837451Y167420D01*
X839741Y161892D01*
X839741Y155908D01*
X837451Y150380D01*
X833220Y146149D01*
X827692Y143859D01*
X821708Y143859D01*
G37*
%LPD*%
%LPC*%
G36*
X61308Y156559D02*
X61308Y156559D01*
X55780Y158849D01*
X51549Y163080D01*
X49259Y168608D01*
X49259Y174592D01*
X51549Y180120D01*
X55780Y184351D01*
X61308Y186641D01*
X67292Y186641D01*
X72820Y184351D01*
X77051Y180120D01*
X79341Y174592D01*
X79341Y168608D01*
X77051Y163080D01*
X72820Y158849D01*
X67292Y156559D01*
X61308Y156559D01*
G37*
%LPD*%
%LPC*%
G36*
X161308Y156559D02*
X161308Y156559D01*
X155780Y158849D01*
X151549Y163080D01*
X149259Y168608D01*
X149259Y174592D01*
X151549Y180120D01*
X155780Y184351D01*
X161308Y186641D01*
X167292Y186641D01*
X172820Y184351D01*
X177051Y180120D01*
X179341Y174592D01*
X179341Y168608D01*
X177051Y163080D01*
X172820Y158849D01*
X167292Y156559D01*
X161308Y156559D01*
G37*
%LPD*%
%LPC*%
G36*
X755134Y639439D02*
X755134Y639439D01*
X751833Y640806D01*
X749306Y643333D01*
X747939Y646634D01*
X747939Y650206D01*
X749306Y653507D01*
X751833Y656034D01*
X754763Y657247D01*
X754884Y657316D01*
X755007Y657381D01*
X755022Y657395D01*
X755040Y657405D01*
X755140Y657502D01*
X755242Y657595D01*
X755253Y657612D01*
X755268Y657626D01*
X755341Y657745D01*
X755417Y657861D01*
X755424Y657880D01*
X755434Y657897D01*
X755475Y658030D01*
X755520Y658162D01*
X755522Y658182D01*
X755528Y658201D01*
X755535Y658340D01*
X755546Y658479D01*
X755542Y658499D01*
X755543Y658519D01*
X755515Y658655D01*
X755491Y658792D01*
X755483Y658811D01*
X755479Y658830D01*
X755417Y658956D01*
X755361Y659082D01*
X755348Y659098D01*
X755339Y659116D01*
X755249Y659222D01*
X755162Y659330D01*
X755146Y659343D01*
X755133Y659358D01*
X755019Y659438D01*
X754908Y659522D01*
X754883Y659534D01*
X754873Y659541D01*
X754853Y659548D01*
X754763Y659593D01*
X751833Y660806D01*
X749306Y663333D01*
X747939Y666634D01*
X747939Y670206D01*
X749306Y673507D01*
X751833Y676034D01*
X755134Y677401D01*
X758706Y677401D01*
X762007Y676034D01*
X764534Y673507D01*
X765901Y670206D01*
X765901Y666634D01*
X764534Y663333D01*
X762007Y660806D01*
X759077Y659593D01*
X758956Y659524D01*
X758833Y659459D01*
X758818Y659445D01*
X758800Y659435D01*
X758700Y659338D01*
X758598Y659245D01*
X758586Y659228D01*
X758572Y659214D01*
X758499Y659096D01*
X758423Y658979D01*
X758416Y658960D01*
X758406Y658943D01*
X758365Y658810D01*
X758320Y658678D01*
X758318Y658658D01*
X758312Y658639D01*
X758305Y658500D01*
X758294Y658361D01*
X758298Y658341D01*
X758297Y658321D01*
X758325Y658185D01*
X758349Y658048D01*
X758357Y658029D01*
X758361Y658010D01*
X758422Y657885D01*
X758479Y657758D01*
X758492Y657742D01*
X758501Y657724D01*
X758591Y657618D01*
X758678Y657510D01*
X758694Y657497D01*
X758707Y657482D01*
X758821Y657402D01*
X758932Y657318D01*
X758957Y657306D01*
X758967Y657299D01*
X758987Y657292D01*
X759077Y657247D01*
X762007Y656034D01*
X764534Y653507D01*
X765901Y650206D01*
X765901Y646634D01*
X764534Y643333D01*
X762007Y640806D01*
X758706Y639439D01*
X755134Y639439D01*
G37*
%LPD*%
%LPC*%
G36*
X669645Y165059D02*
X669645Y165059D01*
X665110Y166938D01*
X661638Y170410D01*
X659759Y174945D01*
X659759Y179855D01*
X661638Y184390D01*
X665110Y187862D01*
X669645Y189741D01*
X674555Y189741D01*
X679090Y187862D01*
X682562Y184390D01*
X684441Y179855D01*
X684441Y174945D01*
X682562Y170410D01*
X679090Y166938D01*
X674555Y165059D01*
X669645Y165059D01*
G37*
%LPD*%
%LPC*%
G36*
X331825Y172679D02*
X331825Y172679D01*
X327290Y174558D01*
X323818Y178030D01*
X321939Y182565D01*
X321939Y187475D01*
X323818Y192010D01*
X327290Y195482D01*
X331825Y197361D01*
X336735Y197361D01*
X341270Y195482D01*
X344742Y192010D01*
X346621Y187475D01*
X346621Y182565D01*
X344742Y178030D01*
X341270Y174558D01*
X336735Y172679D01*
X331825Y172679D01*
G37*
%LPD*%
%LPC*%
G36*
X206825Y172679D02*
X206825Y172679D01*
X202290Y174558D01*
X198818Y178030D01*
X196939Y182565D01*
X196939Y187475D01*
X198818Y192010D01*
X202290Y195482D01*
X206825Y197361D01*
X211735Y197361D01*
X216270Y195482D01*
X219742Y192010D01*
X221621Y187475D01*
X221621Y182565D01*
X219742Y178030D01*
X216270Y174558D01*
X211735Y172679D01*
X206825Y172679D01*
G37*
%LPD*%
%LPC*%
G36*
X544645Y165059D02*
X544645Y165059D01*
X540110Y166938D01*
X536638Y170410D01*
X534759Y174945D01*
X534759Y179855D01*
X536638Y184390D01*
X540110Y187862D01*
X544645Y189741D01*
X549555Y189741D01*
X554090Y187862D01*
X557562Y184390D01*
X559441Y179855D01*
X559441Y174945D01*
X557562Y170410D01*
X554090Y166938D01*
X549555Y165059D01*
X544645Y165059D01*
G37*
%LPD*%
%LPC*%
G36*
X64142Y551799D02*
X64142Y551799D01*
X60636Y553252D01*
X57952Y555936D01*
X56499Y559442D01*
X56499Y563238D01*
X57952Y566744D01*
X60636Y569428D01*
X64142Y570881D01*
X67938Y570881D01*
X71444Y569428D01*
X74128Y566744D01*
X75581Y563238D01*
X75581Y559442D01*
X74128Y555936D01*
X71444Y553252D01*
X67938Y551799D01*
X64142Y551799D01*
G37*
%LPD*%
%LPC*%
G36*
X64142Y577199D02*
X64142Y577199D01*
X60636Y578652D01*
X57952Y581336D01*
X56499Y584842D01*
X56499Y588638D01*
X57952Y592144D01*
X60636Y594828D01*
X64142Y596281D01*
X67938Y596281D01*
X71444Y594828D01*
X74128Y592144D01*
X75581Y588638D01*
X75581Y584842D01*
X74128Y581336D01*
X71444Y578652D01*
X67938Y577199D01*
X64142Y577199D01*
G37*
%LPD*%
%LPC*%
G36*
X64142Y424799D02*
X64142Y424799D01*
X60636Y426252D01*
X57952Y428936D01*
X56499Y432442D01*
X56499Y436238D01*
X57952Y439744D01*
X60636Y442428D01*
X64142Y443881D01*
X67938Y443881D01*
X71444Y442428D01*
X74128Y439744D01*
X75581Y436238D01*
X75581Y432442D01*
X74128Y428936D01*
X71444Y426252D01*
X67938Y424799D01*
X64142Y424799D01*
G37*
%LPD*%
%LPC*%
G36*
X64142Y805799D02*
X64142Y805799D01*
X60636Y807252D01*
X57952Y809936D01*
X56499Y813442D01*
X56499Y817238D01*
X57952Y820744D01*
X60636Y823428D01*
X64142Y824881D01*
X67938Y824881D01*
X71444Y823428D01*
X74128Y820744D01*
X75581Y817238D01*
X75581Y813442D01*
X74128Y809936D01*
X71444Y807252D01*
X67938Y805799D01*
X64142Y805799D01*
G37*
%LPD*%
%LPC*%
G36*
X64142Y881999D02*
X64142Y881999D01*
X60636Y883452D01*
X57952Y886136D01*
X56499Y889642D01*
X56499Y893438D01*
X57952Y896944D01*
X60636Y899628D01*
X64142Y901081D01*
X67938Y901081D01*
X71444Y899628D01*
X74128Y896944D01*
X75581Y893438D01*
X75581Y889642D01*
X74128Y886136D01*
X71444Y883452D01*
X67938Y881999D01*
X64142Y881999D01*
G37*
%LPD*%
%LPC*%
G36*
X64142Y856599D02*
X64142Y856599D01*
X60636Y858052D01*
X57952Y860736D01*
X56499Y864242D01*
X56499Y868038D01*
X57952Y871544D01*
X60636Y874228D01*
X64142Y875681D01*
X67938Y875681D01*
X71444Y874228D01*
X74128Y871544D01*
X75581Y868038D01*
X75581Y864242D01*
X74128Y860736D01*
X71444Y858052D01*
X67938Y856599D01*
X64142Y856599D01*
G37*
%LPD*%
%LPC*%
G36*
X64142Y475599D02*
X64142Y475599D01*
X60636Y477052D01*
X57952Y479736D01*
X56499Y483242D01*
X56499Y487038D01*
X57952Y490544D01*
X60636Y493228D01*
X64142Y494681D01*
X67938Y494681D01*
X71444Y493228D01*
X74128Y490544D01*
X75581Y487038D01*
X75581Y483242D01*
X74128Y479736D01*
X71444Y477052D01*
X67938Y475599D01*
X64142Y475599D01*
G37*
%LPD*%
%LPC*%
G36*
X64142Y450199D02*
X64142Y450199D01*
X60636Y451652D01*
X57952Y454336D01*
X56499Y457842D01*
X56499Y461638D01*
X57952Y465144D01*
X60636Y467828D01*
X64142Y469281D01*
X67938Y469281D01*
X71444Y467828D01*
X74128Y465144D01*
X75581Y461638D01*
X75581Y457842D01*
X74128Y454336D01*
X71444Y451652D01*
X67938Y450199D01*
X64142Y450199D01*
G37*
%LPD*%
%LPC*%
G36*
X64142Y780399D02*
X64142Y780399D01*
X60636Y781852D01*
X57952Y784536D01*
X56499Y788042D01*
X56499Y791838D01*
X57952Y795344D01*
X60636Y798028D01*
X64142Y799481D01*
X67938Y799481D01*
X71444Y798028D01*
X74128Y795344D01*
X75581Y791838D01*
X75581Y788042D01*
X74128Y784536D01*
X71444Y781852D01*
X67938Y780399D01*
X64142Y780399D01*
G37*
%LPD*%
%LPC*%
G36*
X64142Y831199D02*
X64142Y831199D01*
X60636Y832652D01*
X57952Y835336D01*
X56499Y838842D01*
X56499Y842638D01*
X57952Y846144D01*
X60636Y848828D01*
X64142Y850281D01*
X67938Y850281D01*
X71444Y848828D01*
X74128Y846144D01*
X75581Y842638D01*
X75581Y838842D01*
X74128Y835336D01*
X71444Y832652D01*
X67938Y831199D01*
X64142Y831199D01*
G37*
%LPD*%
%LPC*%
G36*
X64142Y754999D02*
X64142Y754999D01*
X60636Y756452D01*
X57952Y759136D01*
X56499Y762642D01*
X56499Y766438D01*
X57952Y769944D01*
X60636Y772628D01*
X64142Y774081D01*
X67938Y774081D01*
X71444Y772628D01*
X74128Y769944D01*
X75581Y766438D01*
X75581Y762642D01*
X74128Y759136D01*
X71444Y756452D01*
X67938Y754999D01*
X64142Y754999D01*
G37*
%LPD*%
%LPC*%
G36*
X64142Y729599D02*
X64142Y729599D01*
X60636Y731052D01*
X57952Y733736D01*
X56499Y737242D01*
X56499Y741038D01*
X57952Y744544D01*
X60636Y747228D01*
X64142Y748681D01*
X67938Y748681D01*
X71444Y747228D01*
X74128Y744544D01*
X75581Y741038D01*
X75581Y737242D01*
X74128Y733736D01*
X71444Y731052D01*
X67938Y729599D01*
X64142Y729599D01*
G37*
%LPD*%
%LPC*%
G36*
X64142Y500999D02*
X64142Y500999D01*
X60636Y502452D01*
X57952Y505136D01*
X56499Y508642D01*
X56499Y512438D01*
X57952Y515944D01*
X60636Y518628D01*
X64142Y520081D01*
X67938Y520081D01*
X71444Y518628D01*
X74128Y515944D01*
X75581Y512438D01*
X75581Y508642D01*
X74128Y505136D01*
X71444Y502452D01*
X67938Y500999D01*
X64142Y500999D01*
G37*
%LPD*%
%LPC*%
G36*
X64142Y704199D02*
X64142Y704199D01*
X60636Y705652D01*
X57952Y708336D01*
X56499Y711842D01*
X56499Y715638D01*
X57952Y719144D01*
X60636Y721828D01*
X64142Y723281D01*
X67938Y723281D01*
X71444Y721828D01*
X74128Y719144D01*
X75581Y715638D01*
X75581Y711842D01*
X74128Y708336D01*
X71444Y705652D01*
X67938Y704199D01*
X64142Y704199D01*
G37*
%LPD*%
%LPC*%
G36*
X64142Y526399D02*
X64142Y526399D01*
X60636Y527852D01*
X57952Y530536D01*
X56499Y534042D01*
X56499Y537838D01*
X57952Y541344D01*
X60636Y544028D01*
X64142Y545481D01*
X67938Y545481D01*
X71444Y544028D01*
X74128Y541344D01*
X75581Y537838D01*
X75581Y534042D01*
X74128Y530536D01*
X71444Y527852D01*
X67938Y526399D01*
X64142Y526399D01*
G37*
%LPD*%
%LPC*%
G36*
X64142Y602599D02*
X64142Y602599D01*
X60636Y604052D01*
X57952Y606736D01*
X56499Y610242D01*
X56499Y614038D01*
X57952Y617544D01*
X60636Y620228D01*
X64142Y621681D01*
X67938Y621681D01*
X71444Y620228D01*
X74128Y617544D01*
X75581Y614038D01*
X75581Y610242D01*
X74128Y606736D01*
X71444Y604052D01*
X67938Y602599D01*
X64142Y602599D01*
G37*
%LPD*%
%LPC*%
G36*
X64142Y653399D02*
X64142Y653399D01*
X60636Y654852D01*
X57952Y657536D01*
X56499Y661042D01*
X56499Y664838D01*
X57952Y668344D01*
X60636Y671028D01*
X64142Y672481D01*
X67938Y672481D01*
X71444Y671028D01*
X74128Y668344D01*
X75581Y664838D01*
X75581Y661042D01*
X74128Y657536D01*
X71444Y654852D01*
X67938Y653399D01*
X64142Y653399D01*
G37*
%LPD*%
%LPC*%
G36*
X64142Y627999D02*
X64142Y627999D01*
X60636Y629452D01*
X57952Y632136D01*
X56499Y635642D01*
X56499Y639438D01*
X57952Y642944D01*
X60636Y645628D01*
X64142Y647081D01*
X67938Y647081D01*
X71444Y645628D01*
X74128Y642944D01*
X75581Y639438D01*
X75581Y635642D01*
X74128Y632136D01*
X71444Y629452D01*
X67938Y627999D01*
X64142Y627999D01*
G37*
%LPD*%
%LPC*%
G36*
X137402Y92059D02*
X137402Y92059D01*
X133896Y93512D01*
X131212Y96196D01*
X129759Y99702D01*
X129759Y103498D01*
X131212Y107004D01*
X133896Y109688D01*
X137402Y111141D01*
X141198Y111141D01*
X144704Y109688D01*
X147388Y107004D01*
X148841Y103498D01*
X148841Y99702D01*
X147388Y96196D01*
X144704Y93512D01*
X141198Y92059D01*
X137402Y92059D01*
G37*
%LPD*%
%LPC*%
G36*
X64142Y678799D02*
X64142Y678799D01*
X60636Y680252D01*
X57952Y682936D01*
X56499Y686442D01*
X56499Y690238D01*
X57952Y693744D01*
X60636Y696428D01*
X64142Y697881D01*
X67938Y697881D01*
X71444Y696428D01*
X74128Y693744D01*
X75581Y690238D01*
X75581Y686442D01*
X74128Y682936D01*
X71444Y680252D01*
X67938Y678799D01*
X64142Y678799D01*
G37*
%LPD*%
%LPC*%
G36*
X87402Y92059D02*
X87402Y92059D01*
X83896Y93512D01*
X81212Y96196D01*
X79759Y99702D01*
X79759Y103498D01*
X81212Y107004D01*
X83896Y109688D01*
X87402Y111141D01*
X91198Y111141D01*
X94704Y109688D01*
X97388Y107004D01*
X98841Y103498D01*
X98841Y99702D01*
X97388Y96196D01*
X94704Y93512D01*
X91198Y92059D01*
X87402Y92059D01*
G37*
%LPD*%
%LPC*%
G36*
X797802Y79359D02*
X797802Y79359D01*
X794296Y80812D01*
X791612Y83496D01*
X790159Y87002D01*
X790159Y90798D01*
X791612Y94304D01*
X794296Y96988D01*
X797802Y98441D01*
X801598Y98441D01*
X805104Y96988D01*
X807788Y94304D01*
X809241Y90798D01*
X809241Y87002D01*
X807788Y83496D01*
X805104Y80812D01*
X801598Y79359D01*
X797802Y79359D01*
G37*
%LPD*%
%LPC*%
G36*
X772802Y79359D02*
X772802Y79359D01*
X769296Y80812D01*
X766612Y83496D01*
X765159Y87002D01*
X765159Y90798D01*
X766612Y94304D01*
X769296Y96988D01*
X772802Y98441D01*
X776598Y98441D01*
X780104Y96988D01*
X782788Y94304D01*
X784241Y90798D01*
X784241Y87002D01*
X782788Y83496D01*
X780104Y80812D01*
X776598Y79359D01*
X772802Y79359D01*
G37*
%LPD*%
%LPC*%
G36*
X747802Y79359D02*
X747802Y79359D01*
X744296Y80812D01*
X741612Y83496D01*
X740159Y87002D01*
X740159Y90798D01*
X741612Y94304D01*
X744296Y96988D01*
X747802Y98441D01*
X751598Y98441D01*
X755104Y96988D01*
X757788Y94304D01*
X759241Y90798D01*
X759241Y87002D01*
X757788Y83496D01*
X755104Y80812D01*
X751598Y79359D01*
X747802Y79359D01*
G37*
%LPD*%
%LPC*%
G36*
X112402Y92059D02*
X112402Y92059D01*
X108896Y93512D01*
X106212Y96196D01*
X104759Y99702D01*
X104759Y103498D01*
X106212Y107004D01*
X108896Y109688D01*
X112402Y111141D01*
X116198Y111141D01*
X119704Y109688D01*
X122388Y107004D01*
X123841Y103498D01*
X123841Y99702D01*
X122388Y96196D01*
X119704Y93512D01*
X116198Y92059D01*
X112402Y92059D01*
G37*
%LPD*%
%LPC*%
G36*
X755134Y684439D02*
X755134Y684439D01*
X751833Y685806D01*
X749306Y688333D01*
X747939Y691634D01*
X747939Y695206D01*
X749306Y698507D01*
X751833Y701034D01*
X755134Y702401D01*
X758706Y702401D01*
X762007Y701034D01*
X764534Y698507D01*
X765901Y695206D01*
X765901Y691634D01*
X764534Y688333D01*
X762007Y685806D01*
X758706Y684439D01*
X755134Y684439D01*
G37*
%LPD*%
%LPC*%
G36*
X358257Y839336D02*
X358257Y839336D01*
X355036Y840670D01*
X352570Y843136D01*
X351236Y846357D01*
X351236Y849843D01*
X352570Y853064D01*
X355036Y855530D01*
X358257Y856864D01*
X361743Y856864D01*
X364964Y855530D01*
X367430Y853064D01*
X368764Y849843D01*
X368764Y846357D01*
X367430Y843136D01*
X364964Y840670D01*
X361743Y839336D01*
X358257Y839336D01*
G37*
%LPD*%
%LPC*%
G36*
X332857Y839336D02*
X332857Y839336D01*
X329636Y840670D01*
X327170Y843136D01*
X325836Y846357D01*
X325836Y849843D01*
X327170Y853064D01*
X329636Y855530D01*
X332857Y856864D01*
X336343Y856864D01*
X339564Y855530D01*
X342030Y853064D01*
X343364Y849843D01*
X343364Y846357D01*
X342030Y843136D01*
X339564Y840670D01*
X336343Y839336D01*
X332857Y839336D01*
G37*
%LPD*%
%LPC*%
G36*
X282057Y839336D02*
X282057Y839336D01*
X278836Y840670D01*
X276370Y843136D01*
X275036Y846357D01*
X275036Y849843D01*
X276370Y853064D01*
X278836Y855530D01*
X282057Y856864D01*
X285543Y856864D01*
X288764Y855530D01*
X291230Y853064D01*
X292564Y849843D01*
X292564Y846357D01*
X291230Y843136D01*
X288764Y840670D01*
X285543Y839336D01*
X282057Y839336D01*
G37*
%LPD*%
%LPC*%
G36*
X256657Y839336D02*
X256657Y839336D01*
X253436Y840670D01*
X250970Y843136D01*
X249636Y846357D01*
X249636Y849843D01*
X250970Y853064D01*
X253436Y855530D01*
X256657Y856864D01*
X260143Y856864D01*
X263364Y855530D01*
X265830Y853064D01*
X267164Y849843D01*
X267164Y846357D01*
X265830Y843136D01*
X263364Y840670D01*
X260143Y839336D01*
X256657Y839336D01*
G37*
%LPD*%
%LPC*%
G36*
X231257Y839336D02*
X231257Y839336D01*
X228036Y840670D01*
X225570Y843136D01*
X224236Y846357D01*
X224236Y849843D01*
X225570Y853064D01*
X228036Y855530D01*
X231257Y856864D01*
X234743Y856864D01*
X237964Y855530D01*
X240430Y853064D01*
X241764Y849843D01*
X241764Y846357D01*
X240430Y843136D01*
X237964Y840670D01*
X234743Y839336D01*
X231257Y839336D01*
G37*
%LPD*%
%LPC*%
G36*
X205857Y839336D02*
X205857Y839336D01*
X202636Y840670D01*
X200170Y843136D01*
X198836Y846357D01*
X198836Y849843D01*
X200170Y853064D01*
X202636Y855530D01*
X205857Y856864D01*
X209343Y856864D01*
X212564Y855530D01*
X215030Y853064D01*
X216364Y849843D01*
X216364Y846357D01*
X215030Y843136D01*
X212564Y840670D01*
X209343Y839336D01*
X205857Y839336D01*
G37*
%LPD*%
%LPC*%
G36*
X180457Y839336D02*
X180457Y839336D01*
X177236Y840670D01*
X174770Y843136D01*
X173436Y846357D01*
X173436Y849843D01*
X174770Y853064D01*
X177236Y855530D01*
X180457Y856864D01*
X183943Y856864D01*
X187164Y855530D01*
X189630Y853064D01*
X190964Y849843D01*
X190964Y846357D01*
X189630Y843136D01*
X187164Y840670D01*
X183943Y839336D01*
X180457Y839336D01*
G37*
%LPD*%
%LPC*%
G36*
X155057Y839336D02*
X155057Y839336D01*
X151836Y840670D01*
X149370Y843136D01*
X148036Y846357D01*
X148036Y849843D01*
X149370Y853064D01*
X151836Y855530D01*
X155057Y856864D01*
X158543Y856864D01*
X161764Y855530D01*
X164230Y853064D01*
X165564Y849843D01*
X165564Y846357D01*
X164230Y843136D01*
X161764Y840670D01*
X158543Y839336D01*
X155057Y839336D01*
G37*
%LPD*%
%LPC*%
G36*
X129657Y839336D02*
X129657Y839336D01*
X126436Y840670D01*
X123970Y843136D01*
X122636Y846357D01*
X122636Y849843D01*
X123970Y853064D01*
X126436Y855530D01*
X129657Y856864D01*
X133143Y856864D01*
X136364Y855530D01*
X138830Y853064D01*
X140164Y849843D01*
X140164Y846357D01*
X138830Y843136D01*
X136364Y840670D01*
X133143Y839336D01*
X129657Y839336D01*
G37*
%LPD*%
%LPC*%
G36*
X104257Y839336D02*
X104257Y839336D01*
X101036Y840670D01*
X98570Y843136D01*
X97236Y846357D01*
X97236Y849843D01*
X98570Y853064D01*
X101036Y855530D01*
X104257Y856864D01*
X107743Y856864D01*
X110964Y855530D01*
X113430Y853064D01*
X114764Y849843D01*
X114764Y846357D01*
X113430Y843136D01*
X110964Y840670D01*
X107743Y839336D01*
X104257Y839336D01*
G37*
%LPD*%
%LPC*%
G36*
X129657Y813936D02*
X129657Y813936D01*
X126436Y815270D01*
X123970Y817736D01*
X122636Y820957D01*
X122636Y824443D01*
X123970Y827664D01*
X126436Y830130D01*
X129657Y831464D01*
X133143Y831464D01*
X136364Y830130D01*
X138830Y827664D01*
X140164Y824443D01*
X140164Y820957D01*
X138830Y817736D01*
X136364Y815270D01*
X133143Y813936D01*
X129657Y813936D01*
G37*
%LPD*%
%LPC*%
G36*
X104257Y813936D02*
X104257Y813936D01*
X101036Y815270D01*
X98570Y817736D01*
X97236Y820957D01*
X97236Y824443D01*
X98570Y827664D01*
X101036Y830130D01*
X104257Y831464D01*
X107743Y831464D01*
X110964Y830130D01*
X113430Y827664D01*
X114764Y824443D01*
X114764Y820957D01*
X113430Y817736D01*
X110964Y815270D01*
X107743Y813936D01*
X104257Y813936D01*
G37*
%LPD*%
%LPC*%
G36*
X536057Y813936D02*
X536057Y813936D01*
X532836Y815270D01*
X530370Y817736D01*
X529036Y820957D01*
X529036Y824443D01*
X530370Y827664D01*
X532836Y830130D01*
X536057Y831464D01*
X539543Y831464D01*
X542764Y830130D01*
X545230Y827664D01*
X546564Y824443D01*
X546564Y820957D01*
X545230Y817736D01*
X542764Y815270D01*
X539543Y813936D01*
X536057Y813936D01*
G37*
%LPD*%
%LPC*%
G36*
X510657Y813936D02*
X510657Y813936D01*
X507436Y815270D01*
X504970Y817736D01*
X503636Y820957D01*
X503636Y824443D01*
X504970Y827664D01*
X507436Y830130D01*
X510657Y831464D01*
X514143Y831464D01*
X517364Y830130D01*
X519830Y827664D01*
X521164Y824443D01*
X521164Y820957D01*
X519830Y817736D01*
X517364Y815270D01*
X514143Y813936D01*
X510657Y813936D01*
G37*
%LPD*%
%LPC*%
G36*
X485257Y813936D02*
X485257Y813936D01*
X482036Y815270D01*
X479570Y817736D01*
X478236Y820957D01*
X478236Y824443D01*
X479570Y827664D01*
X482036Y830130D01*
X485257Y831464D01*
X488743Y831464D01*
X491964Y830130D01*
X494430Y827664D01*
X495764Y824443D01*
X495764Y820957D01*
X494430Y817736D01*
X491964Y815270D01*
X488743Y813936D01*
X485257Y813936D01*
G37*
%LPD*%
%LPC*%
G36*
X459857Y813936D02*
X459857Y813936D01*
X456636Y815270D01*
X454170Y817736D01*
X452836Y820957D01*
X452836Y824443D01*
X454170Y827664D01*
X456636Y830130D01*
X459857Y831464D01*
X463343Y831464D01*
X466564Y830130D01*
X469030Y827664D01*
X470364Y824443D01*
X470364Y820957D01*
X469030Y817736D01*
X466564Y815270D01*
X463343Y813936D01*
X459857Y813936D01*
G37*
%LPD*%
%LPC*%
G36*
X434457Y813936D02*
X434457Y813936D01*
X431236Y815270D01*
X428770Y817736D01*
X427436Y820957D01*
X427436Y824443D01*
X428770Y827664D01*
X431236Y830130D01*
X434457Y831464D01*
X437943Y831464D01*
X441164Y830130D01*
X443630Y827664D01*
X444964Y824443D01*
X444964Y820957D01*
X443630Y817736D01*
X441164Y815270D01*
X437943Y813936D01*
X434457Y813936D01*
G37*
%LPD*%
%LPC*%
G36*
X409057Y813936D02*
X409057Y813936D01*
X405836Y815270D01*
X403370Y817736D01*
X402036Y820957D01*
X402036Y824443D01*
X403370Y827664D01*
X405836Y830130D01*
X409057Y831464D01*
X412543Y831464D01*
X415764Y830130D01*
X418230Y827664D01*
X419564Y824443D01*
X419564Y820957D01*
X418230Y817736D01*
X415764Y815270D01*
X412543Y813936D01*
X409057Y813936D01*
G37*
%LPD*%
%LPC*%
G36*
X383657Y813936D02*
X383657Y813936D01*
X380436Y815270D01*
X377970Y817736D01*
X376636Y820957D01*
X376636Y824443D01*
X377970Y827664D01*
X380436Y830130D01*
X383657Y831464D01*
X387143Y831464D01*
X390364Y830130D01*
X392830Y827664D01*
X394164Y824443D01*
X394164Y820957D01*
X392830Y817736D01*
X390364Y815270D01*
X387143Y813936D01*
X383657Y813936D01*
G37*
%LPD*%
%LPC*%
G36*
X332857Y813936D02*
X332857Y813936D01*
X329636Y815270D01*
X327170Y817736D01*
X325836Y820957D01*
X325836Y824443D01*
X327170Y827664D01*
X329636Y830130D01*
X332857Y831464D01*
X336343Y831464D01*
X339564Y830130D01*
X342030Y827664D01*
X343364Y824443D01*
X343364Y820957D01*
X342030Y817736D01*
X339564Y815270D01*
X336343Y813936D01*
X332857Y813936D01*
G37*
%LPD*%
%LPC*%
G36*
X307457Y813936D02*
X307457Y813936D01*
X304236Y815270D01*
X301770Y817736D01*
X300436Y820957D01*
X300436Y824443D01*
X301770Y827664D01*
X304236Y830130D01*
X307457Y831464D01*
X310943Y831464D01*
X314164Y830130D01*
X316630Y827664D01*
X317964Y824443D01*
X317964Y820957D01*
X316630Y817736D01*
X314164Y815270D01*
X310943Y813936D01*
X307457Y813936D01*
G37*
%LPD*%
%LPC*%
G36*
X256657Y813936D02*
X256657Y813936D01*
X253436Y815270D01*
X250970Y817736D01*
X249636Y820957D01*
X249636Y824443D01*
X250970Y827664D01*
X253436Y830130D01*
X256657Y831464D01*
X260143Y831464D01*
X263364Y830130D01*
X265830Y827664D01*
X267164Y824443D01*
X267164Y820957D01*
X265830Y817736D01*
X263364Y815270D01*
X260143Y813936D01*
X256657Y813936D01*
G37*
%LPD*%
%LPC*%
G36*
X231257Y813936D02*
X231257Y813936D01*
X228036Y815270D01*
X225570Y817736D01*
X224236Y820957D01*
X224236Y824443D01*
X225570Y827664D01*
X228036Y830130D01*
X231257Y831464D01*
X234743Y831464D01*
X237964Y830130D01*
X240430Y827664D01*
X241764Y824443D01*
X241764Y820957D01*
X240430Y817736D01*
X237964Y815270D01*
X234743Y813936D01*
X231257Y813936D01*
G37*
%LPD*%
%LPC*%
G36*
X205857Y813936D02*
X205857Y813936D01*
X202636Y815270D01*
X200170Y817736D01*
X198836Y820957D01*
X198836Y824443D01*
X200170Y827664D01*
X202636Y830130D01*
X205857Y831464D01*
X209343Y831464D01*
X212564Y830130D01*
X215030Y827664D01*
X216364Y824443D01*
X216364Y820957D01*
X215030Y817736D01*
X212564Y815270D01*
X209343Y813936D01*
X205857Y813936D01*
G37*
%LPD*%
%LPC*%
G36*
X180457Y813936D02*
X180457Y813936D01*
X177236Y815270D01*
X174770Y817736D01*
X173436Y820957D01*
X173436Y824443D01*
X174770Y827664D01*
X177236Y830130D01*
X180457Y831464D01*
X183943Y831464D01*
X187164Y830130D01*
X189630Y827664D01*
X190964Y824443D01*
X190964Y820957D01*
X189630Y817736D01*
X187164Y815270D01*
X183943Y813936D01*
X180457Y813936D01*
G37*
%LPD*%
%LPC*%
G36*
X155057Y813936D02*
X155057Y813936D01*
X151836Y815270D01*
X149370Y817736D01*
X148036Y820957D01*
X148036Y824443D01*
X149370Y827664D01*
X151836Y830130D01*
X155057Y831464D01*
X158543Y831464D01*
X161764Y830130D01*
X164230Y827664D01*
X165564Y824443D01*
X165564Y820957D01*
X164230Y817736D01*
X161764Y815270D01*
X158543Y813936D01*
X155057Y813936D01*
G37*
%LPD*%
%LPC*%
G36*
X129657Y585336D02*
X129657Y585336D01*
X126436Y586670D01*
X123970Y589136D01*
X122636Y592357D01*
X122636Y595843D01*
X123970Y599064D01*
X126436Y601530D01*
X129657Y602864D01*
X133143Y602864D01*
X136364Y601530D01*
X138830Y599064D01*
X140164Y595843D01*
X140164Y592357D01*
X138830Y589136D01*
X136364Y586670D01*
X133143Y585336D01*
X129657Y585336D01*
G37*
%LPD*%
%LPC*%
G36*
X104257Y585336D02*
X104257Y585336D01*
X101036Y586670D01*
X98570Y589136D01*
X97236Y592357D01*
X97236Y595843D01*
X98570Y599064D01*
X101036Y601530D01*
X104257Y602864D01*
X107743Y602864D01*
X110964Y601530D01*
X113430Y599064D01*
X114764Y595843D01*
X114764Y592357D01*
X113430Y589136D01*
X110964Y586670D01*
X107743Y585336D01*
X104257Y585336D01*
G37*
%LPD*%
%LPC*%
G36*
X536057Y585336D02*
X536057Y585336D01*
X532836Y586670D01*
X530370Y589136D01*
X529036Y592357D01*
X529036Y595843D01*
X530370Y599064D01*
X532836Y601530D01*
X536057Y602864D01*
X539543Y602864D01*
X542764Y601530D01*
X545230Y599064D01*
X546564Y595843D01*
X546564Y592357D01*
X545230Y589136D01*
X542764Y586670D01*
X539543Y585336D01*
X536057Y585336D01*
G37*
%LPD*%
%LPC*%
G36*
X510657Y585336D02*
X510657Y585336D01*
X507436Y586670D01*
X504970Y589136D01*
X503636Y592357D01*
X503636Y595843D01*
X504970Y599064D01*
X507436Y601530D01*
X510657Y602864D01*
X514143Y602864D01*
X517364Y601530D01*
X519830Y599064D01*
X521164Y595843D01*
X521164Y592357D01*
X519830Y589136D01*
X517364Y586670D01*
X514143Y585336D01*
X510657Y585336D01*
G37*
%LPD*%
%LPC*%
G36*
X485257Y585336D02*
X485257Y585336D01*
X482036Y586670D01*
X479570Y589136D01*
X478236Y592357D01*
X478236Y595843D01*
X479570Y599064D01*
X482036Y601530D01*
X485257Y602864D01*
X488743Y602864D01*
X491964Y601530D01*
X494430Y599064D01*
X495764Y595843D01*
X495764Y592357D01*
X494430Y589136D01*
X491964Y586670D01*
X488743Y585336D01*
X485257Y585336D01*
G37*
%LPD*%
%LPC*%
G36*
X459857Y585336D02*
X459857Y585336D01*
X456636Y586670D01*
X454170Y589136D01*
X452836Y592357D01*
X452836Y595843D01*
X454170Y599064D01*
X456636Y601530D01*
X459857Y602864D01*
X463343Y602864D01*
X466564Y601530D01*
X469030Y599064D01*
X470364Y595843D01*
X470364Y592357D01*
X469030Y589136D01*
X466564Y586670D01*
X463343Y585336D01*
X459857Y585336D01*
G37*
%LPD*%
%LPC*%
G36*
X434457Y585336D02*
X434457Y585336D01*
X431236Y586670D01*
X428770Y589136D01*
X427436Y592357D01*
X427436Y595843D01*
X428770Y599064D01*
X431236Y601530D01*
X434457Y602864D01*
X437943Y602864D01*
X441164Y601530D01*
X443630Y599064D01*
X444964Y595843D01*
X444964Y592357D01*
X443630Y589136D01*
X441164Y586670D01*
X437943Y585336D01*
X434457Y585336D01*
G37*
%LPD*%
%LPC*%
G36*
X409057Y585336D02*
X409057Y585336D01*
X405836Y586670D01*
X403370Y589136D01*
X402036Y592357D01*
X402036Y595843D01*
X403370Y599064D01*
X405836Y601530D01*
X409057Y602864D01*
X412543Y602864D01*
X415764Y601530D01*
X418230Y599064D01*
X419564Y595843D01*
X419564Y592357D01*
X418230Y589136D01*
X415764Y586670D01*
X412543Y585336D01*
X409057Y585336D01*
G37*
%LPD*%
%LPC*%
G36*
X383657Y585336D02*
X383657Y585336D01*
X380436Y586670D01*
X377970Y589136D01*
X376636Y592357D01*
X376636Y595843D01*
X377970Y599064D01*
X380436Y601530D01*
X383657Y602864D01*
X387143Y602864D01*
X390364Y601530D01*
X392830Y599064D01*
X394164Y595843D01*
X394164Y592357D01*
X392830Y589136D01*
X390364Y586670D01*
X387143Y585336D01*
X383657Y585336D01*
G37*
%LPD*%
%LPC*%
G36*
X332857Y585336D02*
X332857Y585336D01*
X329636Y586670D01*
X327170Y589136D01*
X325836Y592357D01*
X325836Y595843D01*
X327170Y599064D01*
X329636Y601530D01*
X332857Y602864D01*
X336343Y602864D01*
X339564Y601530D01*
X342030Y599064D01*
X343364Y595843D01*
X343364Y592357D01*
X342030Y589136D01*
X339564Y586670D01*
X336343Y585336D01*
X332857Y585336D01*
G37*
%LPD*%
%LPC*%
G36*
X307457Y839336D02*
X307457Y839336D01*
X304236Y840670D01*
X301770Y843136D01*
X300436Y846357D01*
X300436Y849843D01*
X301770Y853064D01*
X304236Y855530D01*
X307457Y856864D01*
X310943Y856864D01*
X314164Y855530D01*
X316630Y853064D01*
X317964Y849843D01*
X317964Y846357D01*
X316630Y843136D01*
X314164Y840670D01*
X310943Y839336D01*
X307457Y839336D01*
G37*
%LPD*%
%LPC*%
G36*
X256657Y585336D02*
X256657Y585336D01*
X253436Y586670D01*
X250970Y589136D01*
X249636Y592357D01*
X249636Y595843D01*
X250970Y599064D01*
X253436Y601530D01*
X256657Y602864D01*
X260143Y602864D01*
X263364Y601530D01*
X265830Y599064D01*
X267164Y595843D01*
X267164Y592357D01*
X265830Y589136D01*
X263364Y586670D01*
X260143Y585336D01*
X256657Y585336D01*
G37*
%LPD*%
%LPC*%
G36*
X231257Y585336D02*
X231257Y585336D01*
X228036Y586670D01*
X225570Y589136D01*
X224236Y592357D01*
X224236Y595843D01*
X225570Y599064D01*
X228036Y601530D01*
X231257Y602864D01*
X234743Y602864D01*
X237964Y601530D01*
X240430Y599064D01*
X241764Y595843D01*
X241764Y592357D01*
X240430Y589136D01*
X237964Y586670D01*
X234743Y585336D01*
X231257Y585336D01*
G37*
%LPD*%
%LPC*%
G36*
X205857Y585336D02*
X205857Y585336D01*
X202636Y586670D01*
X200170Y589136D01*
X198836Y592357D01*
X198836Y595843D01*
X200170Y599064D01*
X202636Y601530D01*
X205857Y602864D01*
X209343Y602864D01*
X212564Y601530D01*
X215030Y599064D01*
X216364Y595843D01*
X216364Y592357D01*
X215030Y589136D01*
X212564Y586670D01*
X209343Y585336D01*
X205857Y585336D01*
G37*
%LPD*%
%LPC*%
G36*
X180457Y585336D02*
X180457Y585336D01*
X177236Y586670D01*
X174770Y589136D01*
X173436Y592357D01*
X173436Y595843D01*
X174770Y599064D01*
X177236Y601530D01*
X180457Y602864D01*
X183943Y602864D01*
X187164Y601530D01*
X189630Y599064D01*
X190964Y595843D01*
X190964Y592357D01*
X189630Y589136D01*
X187164Y586670D01*
X183943Y585336D01*
X180457Y585336D01*
G37*
%LPD*%
%LPC*%
G36*
X155057Y585336D02*
X155057Y585336D01*
X151836Y586670D01*
X149370Y589136D01*
X148036Y592357D01*
X148036Y595843D01*
X149370Y599064D01*
X151836Y601530D01*
X155057Y602864D01*
X158543Y602864D01*
X161764Y601530D01*
X164230Y599064D01*
X165564Y595843D01*
X165564Y592357D01*
X164230Y589136D01*
X161764Y586670D01*
X158543Y585336D01*
X155057Y585336D01*
G37*
%LPD*%
%LPC*%
G36*
X332857Y559936D02*
X332857Y559936D01*
X329636Y561270D01*
X327170Y563736D01*
X325836Y566957D01*
X325836Y570443D01*
X327170Y573664D01*
X329636Y576130D01*
X332857Y577464D01*
X336343Y577464D01*
X339564Y576130D01*
X342030Y573664D01*
X343364Y570443D01*
X343364Y566957D01*
X342030Y563736D01*
X339564Y561270D01*
X336343Y559936D01*
X332857Y559936D01*
G37*
%LPD*%
%LPC*%
G36*
X307457Y559936D02*
X307457Y559936D01*
X304236Y561270D01*
X301770Y563736D01*
X300436Y566957D01*
X300436Y570443D01*
X301770Y573664D01*
X304236Y576130D01*
X307457Y577464D01*
X310943Y577464D01*
X314164Y576130D01*
X316630Y573664D01*
X317964Y570443D01*
X317964Y566957D01*
X316630Y563736D01*
X314164Y561270D01*
X310943Y559936D01*
X307457Y559936D01*
G37*
%LPD*%
%LPC*%
G36*
X536057Y559936D02*
X536057Y559936D01*
X532836Y561270D01*
X530370Y563736D01*
X529036Y566957D01*
X529036Y570443D01*
X530370Y573664D01*
X532836Y576130D01*
X536057Y577464D01*
X539543Y577464D01*
X542764Y576130D01*
X545230Y573664D01*
X546564Y570443D01*
X546564Y566957D01*
X545230Y563736D01*
X542764Y561270D01*
X539543Y559936D01*
X536057Y559936D01*
G37*
%LPD*%
%LPC*%
G36*
X510657Y559936D02*
X510657Y559936D01*
X507436Y561270D01*
X504970Y563736D01*
X503636Y566957D01*
X503636Y570443D01*
X504970Y573664D01*
X507436Y576130D01*
X510657Y577464D01*
X514143Y577464D01*
X517364Y576130D01*
X519830Y573664D01*
X521164Y570443D01*
X521164Y566957D01*
X519830Y563736D01*
X517364Y561270D01*
X514143Y559936D01*
X510657Y559936D01*
G37*
%LPD*%
%LPC*%
G36*
X485257Y559936D02*
X485257Y559936D01*
X482036Y561270D01*
X479570Y563736D01*
X478236Y566957D01*
X478236Y570443D01*
X479570Y573664D01*
X482036Y576130D01*
X485257Y577464D01*
X488743Y577464D01*
X491964Y576130D01*
X494430Y573664D01*
X495764Y570443D01*
X495764Y566957D01*
X494430Y563736D01*
X491964Y561270D01*
X488743Y559936D01*
X485257Y559936D01*
G37*
%LPD*%
%LPC*%
G36*
X459857Y559936D02*
X459857Y559936D01*
X456636Y561270D01*
X454170Y563736D01*
X452836Y566957D01*
X452836Y570443D01*
X454170Y573664D01*
X456636Y576130D01*
X459857Y577464D01*
X463343Y577464D01*
X466564Y576130D01*
X469030Y573664D01*
X470364Y570443D01*
X470364Y566957D01*
X469030Y563736D01*
X466564Y561270D01*
X463343Y559936D01*
X459857Y559936D01*
G37*
%LPD*%
%LPC*%
G36*
X434457Y559936D02*
X434457Y559936D01*
X431236Y561270D01*
X428770Y563736D01*
X427436Y566957D01*
X427436Y570443D01*
X428770Y573664D01*
X431236Y576130D01*
X434457Y577464D01*
X437943Y577464D01*
X441164Y576130D01*
X443630Y573664D01*
X444964Y570443D01*
X444964Y566957D01*
X443630Y563736D01*
X441164Y561270D01*
X437943Y559936D01*
X434457Y559936D01*
G37*
%LPD*%
%LPC*%
G36*
X409057Y559936D02*
X409057Y559936D01*
X405836Y561270D01*
X403370Y563736D01*
X402036Y566957D01*
X402036Y570443D01*
X403370Y573664D01*
X405836Y576130D01*
X409057Y577464D01*
X412543Y577464D01*
X415764Y576130D01*
X418230Y573664D01*
X419564Y570443D01*
X419564Y566957D01*
X418230Y563736D01*
X415764Y561270D01*
X412543Y559936D01*
X409057Y559936D01*
G37*
%LPD*%
%LPC*%
G36*
X383657Y559936D02*
X383657Y559936D01*
X380436Y561270D01*
X377970Y563736D01*
X376636Y566957D01*
X376636Y570443D01*
X377970Y573664D01*
X380436Y576130D01*
X383657Y577464D01*
X387143Y577464D01*
X390364Y576130D01*
X392830Y573664D01*
X394164Y570443D01*
X394164Y566957D01*
X392830Y563736D01*
X390364Y561270D01*
X387143Y559936D01*
X383657Y559936D01*
G37*
%LPD*%
%LPC*%
G36*
X282057Y559936D02*
X282057Y559936D01*
X278836Y561270D01*
X276370Y563736D01*
X275036Y566957D01*
X275036Y570443D01*
X276370Y573664D01*
X278836Y576130D01*
X282057Y577464D01*
X285543Y577464D01*
X288764Y576130D01*
X291230Y573664D01*
X292564Y570443D01*
X292564Y566957D01*
X291230Y563736D01*
X288764Y561270D01*
X285543Y559936D01*
X282057Y559936D01*
G37*
%LPD*%
%LPC*%
G36*
X256657Y559936D02*
X256657Y559936D01*
X253436Y561270D01*
X250970Y563736D01*
X249636Y566957D01*
X249636Y570443D01*
X250970Y573664D01*
X253436Y576130D01*
X256657Y577464D01*
X260143Y577464D01*
X263364Y576130D01*
X265830Y573664D01*
X267164Y570443D01*
X267164Y566957D01*
X265830Y563736D01*
X263364Y561270D01*
X260143Y559936D01*
X256657Y559936D01*
G37*
%LPD*%
%LPC*%
G36*
X231257Y559936D02*
X231257Y559936D01*
X228036Y561270D01*
X225570Y563736D01*
X224236Y566957D01*
X224236Y570443D01*
X225570Y573664D01*
X228036Y576130D01*
X231257Y577464D01*
X234743Y577464D01*
X237964Y576130D01*
X240430Y573664D01*
X241764Y570443D01*
X241764Y566957D01*
X240430Y563736D01*
X237964Y561270D01*
X234743Y559936D01*
X231257Y559936D01*
G37*
%LPD*%
%LPC*%
G36*
X205857Y559936D02*
X205857Y559936D01*
X202636Y561270D01*
X200170Y563736D01*
X198836Y566957D01*
X198836Y570443D01*
X200170Y573664D01*
X202636Y576130D01*
X205857Y577464D01*
X209343Y577464D01*
X212564Y576130D01*
X215030Y573664D01*
X216364Y570443D01*
X216364Y566957D01*
X215030Y563736D01*
X212564Y561270D01*
X209343Y559936D01*
X205857Y559936D01*
G37*
%LPD*%
%LPC*%
G36*
X180457Y559936D02*
X180457Y559936D01*
X177236Y561270D01*
X174770Y563736D01*
X173436Y566957D01*
X173436Y570443D01*
X174770Y573664D01*
X177236Y576130D01*
X180457Y577464D01*
X183943Y577464D01*
X187164Y576130D01*
X189630Y573664D01*
X190964Y570443D01*
X190964Y566957D01*
X189630Y563736D01*
X187164Y561270D01*
X183943Y559936D01*
X180457Y559936D01*
G37*
%LPD*%
%LPC*%
G36*
X155057Y559936D02*
X155057Y559936D01*
X151836Y561270D01*
X149370Y563736D01*
X148036Y566957D01*
X148036Y570443D01*
X149370Y573664D01*
X151836Y576130D01*
X155057Y577464D01*
X158543Y577464D01*
X161764Y576130D01*
X164230Y573664D01*
X165564Y570443D01*
X165564Y566957D01*
X164230Y563736D01*
X161764Y561270D01*
X158543Y559936D01*
X155057Y559936D01*
G37*
%LPD*%
%LPC*%
G36*
X129657Y559936D02*
X129657Y559936D01*
X126436Y561270D01*
X123970Y563736D01*
X122636Y566957D01*
X122636Y570443D01*
X123970Y573664D01*
X126436Y576130D01*
X129657Y577464D01*
X133143Y577464D01*
X136364Y576130D01*
X138830Y573664D01*
X140164Y570443D01*
X140164Y566957D01*
X138830Y563736D01*
X136364Y561270D01*
X133143Y559936D01*
X129657Y559936D01*
G37*
%LPD*%
%LPC*%
G36*
X104257Y559936D02*
X104257Y559936D01*
X101036Y561270D01*
X98570Y563736D01*
X97236Y566957D01*
X97236Y570443D01*
X98570Y573664D01*
X101036Y576130D01*
X104257Y577464D01*
X107743Y577464D01*
X110964Y576130D01*
X113430Y573664D01*
X114764Y570443D01*
X114764Y566957D01*
X113430Y563736D01*
X110964Y561270D01*
X107743Y559936D01*
X104257Y559936D01*
G37*
%LPD*%
%LPC*%
G36*
X307457Y585336D02*
X307457Y585336D01*
X304236Y586670D01*
X301770Y589136D01*
X300436Y592357D01*
X300436Y595843D01*
X301770Y599064D01*
X304236Y601530D01*
X307457Y602864D01*
X310943Y602864D01*
X314164Y601530D01*
X316630Y599064D01*
X317964Y595843D01*
X317964Y592357D01*
X316630Y589136D01*
X314164Y586670D01*
X310943Y585336D01*
X307457Y585336D01*
G37*
%LPD*%
%LPC*%
G36*
X536057Y839336D02*
X536057Y839336D01*
X532836Y840670D01*
X530370Y843136D01*
X529036Y846357D01*
X529036Y849843D01*
X530370Y853064D01*
X532836Y855530D01*
X536057Y856864D01*
X539543Y856864D01*
X542764Y855530D01*
X545230Y853064D01*
X546564Y849843D01*
X546564Y846357D01*
X545230Y843136D01*
X542764Y840670D01*
X539543Y839336D01*
X536057Y839336D01*
G37*
%LPD*%
%LPC*%
G36*
X510657Y839336D02*
X510657Y839336D01*
X507436Y840670D01*
X504970Y843136D01*
X503636Y846357D01*
X503636Y849843D01*
X504970Y853064D01*
X507436Y855530D01*
X510657Y856864D01*
X514143Y856864D01*
X517364Y855530D01*
X519830Y853064D01*
X521164Y849843D01*
X521164Y846357D01*
X519830Y843136D01*
X517364Y840670D01*
X514143Y839336D01*
X510657Y839336D01*
G37*
%LPD*%
%LPC*%
G36*
X485257Y839336D02*
X485257Y839336D01*
X482036Y840670D01*
X479570Y843136D01*
X478236Y846357D01*
X478236Y849843D01*
X479570Y853064D01*
X482036Y855530D01*
X485257Y856864D01*
X488743Y856864D01*
X491964Y855530D01*
X494430Y853064D01*
X495764Y849843D01*
X495764Y846357D01*
X494430Y843136D01*
X491964Y840670D01*
X488743Y839336D01*
X485257Y839336D01*
G37*
%LPD*%
%LPC*%
G36*
X459857Y839336D02*
X459857Y839336D01*
X456636Y840670D01*
X454170Y843136D01*
X452836Y846357D01*
X452836Y849843D01*
X454170Y853064D01*
X456636Y855530D01*
X459857Y856864D01*
X463343Y856864D01*
X466564Y855530D01*
X469030Y853064D01*
X470364Y849843D01*
X470364Y846357D01*
X469030Y843136D01*
X466564Y840670D01*
X463343Y839336D01*
X459857Y839336D01*
G37*
%LPD*%
%LPC*%
G36*
X434457Y839336D02*
X434457Y839336D01*
X431236Y840670D01*
X428770Y843136D01*
X427436Y846357D01*
X427436Y849843D01*
X428770Y853064D01*
X431236Y855530D01*
X434457Y856864D01*
X437943Y856864D01*
X441164Y855530D01*
X443630Y853064D01*
X444964Y849843D01*
X444964Y846357D01*
X443630Y843136D01*
X441164Y840670D01*
X437943Y839336D01*
X434457Y839336D01*
G37*
%LPD*%
%LPC*%
G36*
X409057Y839336D02*
X409057Y839336D01*
X405836Y840670D01*
X403370Y843136D01*
X402036Y846357D01*
X402036Y849843D01*
X403370Y853064D01*
X405836Y855530D01*
X409057Y856864D01*
X412543Y856864D01*
X415764Y855530D01*
X418230Y853064D01*
X419564Y849843D01*
X419564Y846357D01*
X418230Y843136D01*
X415764Y840670D01*
X412543Y839336D01*
X409057Y839336D01*
G37*
%LPD*%
%LPC*%
G36*
X383657Y839336D02*
X383657Y839336D01*
X380436Y840670D01*
X377970Y843136D01*
X376636Y846357D01*
X376636Y849843D01*
X377970Y853064D01*
X380436Y855530D01*
X383657Y856864D01*
X387143Y856864D01*
X390364Y855530D01*
X392830Y853064D01*
X394164Y849843D01*
X394164Y846357D01*
X392830Y843136D01*
X390364Y840670D01*
X387143Y839336D01*
X383657Y839336D01*
G37*
%LPD*%
%LPC*%
G36*
X379888Y616711D02*
X379888Y616711D01*
X377834Y617562D01*
X376262Y619134D01*
X375411Y621188D01*
X375411Y623412D01*
X376262Y625466D01*
X377834Y627038D01*
X379888Y627889D01*
X382112Y627889D01*
X384166Y627038D01*
X385738Y625466D01*
X386589Y623412D01*
X386589Y621188D01*
X385738Y619134D01*
X384166Y617562D01*
X382112Y616711D01*
X379888Y616711D01*
G37*
%LPD*%
%LPC*%
G36*
X374808Y134111D02*
X374808Y134111D01*
X372754Y134962D01*
X371182Y136534D01*
X370331Y138588D01*
X370331Y140812D01*
X371182Y142866D01*
X372754Y144438D01*
X374808Y145289D01*
X377032Y145289D01*
X379086Y144438D01*
X380658Y142866D01*
X381509Y140812D01*
X381509Y138588D01*
X380658Y136534D01*
X379086Y134962D01*
X377032Y134111D01*
X374808Y134111D01*
G37*
%LPD*%
%LPC*%
G36*
X506888Y136651D02*
X506888Y136651D01*
X504834Y137502D01*
X503262Y139074D01*
X502411Y141128D01*
X502411Y143352D01*
X503262Y145406D01*
X504834Y146978D01*
X506888Y147829D01*
X509112Y147829D01*
X511166Y146978D01*
X512738Y145406D01*
X513589Y143352D01*
X513589Y141128D01*
X512738Y139074D01*
X511166Y137502D01*
X509112Y136651D01*
X506888Y136651D01*
G37*
%LPD*%
%LPC*%
G36*
X549639Y129939D02*
X549639Y129939D01*
X549639Y139492D01*
X549990Y139437D01*
X551837Y138837D01*
X553568Y137955D01*
X555139Y136813D01*
X556513Y135439D01*
X557655Y133868D01*
X558537Y132137D01*
X559137Y130290D01*
X559192Y129939D01*
X549639Y129939D01*
G37*
%LPD*%
%LPC*%
G36*
X211819Y137559D02*
X211819Y137559D01*
X211819Y147112D01*
X212170Y147057D01*
X214017Y146457D01*
X215748Y145575D01*
X217319Y144433D01*
X218693Y143059D01*
X219835Y141488D01*
X220717Y139757D01*
X221317Y137910D01*
X221372Y137559D01*
X211819Y137559D01*
G37*
%LPD*%
%LPC*%
G36*
X674639Y129939D02*
X674639Y129939D01*
X674639Y139492D01*
X674990Y139437D01*
X676837Y138837D01*
X678568Y137955D01*
X680139Y136813D01*
X681513Y135439D01*
X682655Y133868D01*
X683537Y132137D01*
X684137Y130290D01*
X684192Y129939D01*
X674639Y129939D01*
G37*
%LPD*%
%LPC*%
G36*
X336819Y137559D02*
X336819Y137559D01*
X336819Y147112D01*
X337170Y147057D01*
X339017Y146457D01*
X340748Y145575D01*
X342319Y144433D01*
X343693Y143059D01*
X344835Y141488D01*
X345717Y139757D01*
X346317Y137910D01*
X346372Y137559D01*
X336819Y137559D01*
G37*
%LPD*%
%LPC*%
G36*
X211819Y132481D02*
X211819Y132481D01*
X221372Y132481D01*
X221317Y132130D01*
X220717Y130283D01*
X219835Y128552D01*
X218693Y126981D01*
X217319Y125607D01*
X215748Y124465D01*
X214017Y123583D01*
X212170Y122983D01*
X211819Y122928D01*
X211819Y132481D01*
G37*
%LPD*%
%LPC*%
G36*
X336819Y132481D02*
X336819Y132481D01*
X346372Y132481D01*
X346317Y132130D01*
X345717Y130283D01*
X344835Y128552D01*
X343693Y126981D01*
X342319Y125607D01*
X340748Y124465D01*
X339017Y123583D01*
X337170Y122983D01*
X336819Y122928D01*
X336819Y132481D01*
G37*
%LPD*%
%LPC*%
G36*
X535008Y129939D02*
X535008Y129939D01*
X535063Y130290D01*
X535663Y132137D01*
X536545Y133868D01*
X537687Y135439D01*
X539061Y136813D01*
X540632Y137955D01*
X542363Y138837D01*
X544210Y139437D01*
X544561Y139492D01*
X544561Y129939D01*
X535008Y129939D01*
G37*
%LPD*%
%LPC*%
G36*
X660008Y129939D02*
X660008Y129939D01*
X660063Y130290D01*
X660663Y132137D01*
X661545Y133868D01*
X662687Y135439D01*
X664061Y136813D01*
X665632Y137955D01*
X667363Y138837D01*
X669210Y139437D01*
X669561Y139492D01*
X669561Y129939D01*
X660008Y129939D01*
G37*
%LPD*%
%LPC*%
G36*
X197188Y137559D02*
X197188Y137559D01*
X197243Y137910D01*
X197843Y139757D01*
X198725Y141488D01*
X199867Y143059D01*
X201241Y144433D01*
X202812Y145575D01*
X204543Y146457D01*
X206390Y147057D01*
X206741Y147112D01*
X206741Y137559D01*
X197188Y137559D01*
G37*
%LPD*%
%LPC*%
G36*
X322188Y137559D02*
X322188Y137559D01*
X322243Y137910D01*
X322843Y139757D01*
X323725Y141488D01*
X324867Y143059D01*
X326241Y144433D01*
X327812Y145575D01*
X329543Y146457D01*
X331390Y147057D01*
X331741Y147112D01*
X331741Y137559D01*
X322188Y137559D01*
G37*
%LPD*%
%LPC*%
G36*
X674639Y124861D02*
X674639Y124861D01*
X684192Y124861D01*
X684137Y124510D01*
X683537Y122663D01*
X682655Y120932D01*
X681513Y119361D01*
X680139Y117987D01*
X678568Y116845D01*
X676837Y115963D01*
X674990Y115363D01*
X674639Y115308D01*
X674639Y124861D01*
G37*
%LPD*%
%LPC*%
G36*
X549639Y124861D02*
X549639Y124861D01*
X559192Y124861D01*
X559137Y124510D01*
X558537Y122663D01*
X557655Y120932D01*
X556513Y119361D01*
X555139Y117987D01*
X553568Y116845D01*
X551837Y115963D01*
X549990Y115363D01*
X549639Y115308D01*
X549639Y124861D01*
G37*
%LPD*%
%LPC*%
G36*
X206390Y122983D02*
X206390Y122983D01*
X204543Y123583D01*
X202812Y124465D01*
X201241Y125607D01*
X199867Y126981D01*
X198725Y128552D01*
X197843Y130283D01*
X197243Y132130D01*
X197188Y132481D01*
X206741Y132481D01*
X206741Y122928D01*
X206390Y122983D01*
G37*
%LPD*%
%LPC*%
G36*
X331390Y122983D02*
X331390Y122983D01*
X329543Y123583D01*
X327812Y124465D01*
X326241Y125607D01*
X324867Y126981D01*
X323725Y128552D01*
X322843Y130283D01*
X322243Y132130D01*
X322188Y132481D01*
X331741Y132481D01*
X331741Y122928D01*
X331390Y122983D01*
G37*
%LPD*%
%LPC*%
G36*
X669210Y115363D02*
X669210Y115363D01*
X667363Y115963D01*
X665632Y116845D01*
X664061Y117987D01*
X662687Y119361D01*
X661545Y120932D01*
X660663Y122663D01*
X660063Y124510D01*
X660008Y124861D01*
X669561Y124861D01*
X669561Y115308D01*
X669210Y115363D01*
G37*
%LPD*%
%LPC*%
G36*
X544210Y115363D02*
X544210Y115363D01*
X542363Y115963D01*
X540632Y116845D01*
X539061Y117987D01*
X537687Y119361D01*
X536545Y120932D01*
X535663Y122663D01*
X535063Y124510D01*
X535008Y124861D01*
X544561Y124861D01*
X544561Y115308D01*
X544210Y115363D01*
G37*
%LPD*%
%LPC*%
G36*
X68539Y919439D02*
X68539Y919439D01*
X68539Y926160D01*
X69702Y925782D01*
X71041Y925100D01*
X72255Y924217D01*
X73317Y923155D01*
X74200Y921941D01*
X74882Y920602D01*
X75260Y919439D01*
X68539Y919439D01*
G37*
%LPD*%
%LPC*%
G36*
X56820Y919439D02*
X56820Y919439D01*
X57198Y920602D01*
X57880Y921941D01*
X58763Y923155D01*
X59825Y924217D01*
X61039Y925100D01*
X62378Y925782D01*
X63541Y926160D01*
X63541Y919439D01*
X56820Y919439D01*
G37*
%LPD*%
%LPC*%
G36*
X68539Y914441D02*
X68539Y914441D01*
X75260Y914441D01*
X74882Y913278D01*
X74200Y911939D01*
X73317Y910725D01*
X72255Y909663D01*
X71041Y908780D01*
X69702Y908098D01*
X68539Y907720D01*
X68539Y914441D01*
G37*
%LPD*%
%LPC*%
G36*
X62378Y908098D02*
X62378Y908098D01*
X61039Y908780D01*
X59825Y909663D01*
X58763Y910725D01*
X57880Y911939D01*
X57198Y913278D01*
X56820Y914441D01*
X63541Y914441D01*
X63541Y907720D01*
X62378Y908098D01*
G37*
%LPD*%
%LPC*%
G36*
X759219Y625719D02*
X759219Y625719D01*
X759219Y632119D01*
X759540Y632056D01*
X761174Y631379D01*
X762645Y630396D01*
X763896Y629145D01*
X764879Y627674D01*
X765556Y626040D01*
X765619Y625719D01*
X759219Y625719D01*
G37*
%LPD*%
%LPC*%
G36*
X759219Y621121D02*
X759219Y621121D01*
X765619Y621121D01*
X765556Y620800D01*
X764879Y619166D01*
X763896Y617695D01*
X762645Y616444D01*
X761174Y615461D01*
X759540Y614784D01*
X759219Y614721D01*
X759219Y621121D01*
G37*
%LPD*%
%LPC*%
G36*
X748221Y625719D02*
X748221Y625719D01*
X748284Y626040D01*
X748961Y627674D01*
X749944Y629145D01*
X751195Y630396D01*
X752666Y631379D01*
X754300Y632056D01*
X754621Y632119D01*
X754621Y625719D01*
X748221Y625719D01*
G37*
%LPD*%
%LPC*%
G36*
X754300Y614784D02*
X754300Y614784D01*
X752666Y615461D01*
X751195Y616444D01*
X749944Y617695D01*
X748961Y619166D01*
X748284Y620800D01*
X748221Y621121D01*
X754621Y621121D01*
X754621Y614721D01*
X754300Y614784D01*
G37*
%LPD*%
%LPC*%
G36*
X362222Y824922D02*
X362222Y824922D01*
X362222Y831193D01*
X362556Y831127D01*
X364151Y830466D01*
X365587Y829507D01*
X366807Y828287D01*
X367766Y826851D01*
X368427Y825256D01*
X368493Y824922D01*
X362222Y824922D01*
G37*
%LPD*%
%LPC*%
G36*
X286022Y824922D02*
X286022Y824922D01*
X286022Y831193D01*
X286356Y831127D01*
X287951Y830466D01*
X289387Y829507D01*
X290607Y828287D01*
X291566Y826851D01*
X292227Y825256D01*
X292293Y824922D01*
X286022Y824922D01*
G37*
%LPD*%
%LPC*%
G36*
X286022Y596322D02*
X286022Y596322D01*
X286022Y602593D01*
X286356Y602527D01*
X287951Y601866D01*
X289387Y600907D01*
X290607Y599687D01*
X291566Y598251D01*
X292227Y596656D01*
X292293Y596322D01*
X286022Y596322D01*
G37*
%LPD*%
%LPC*%
G36*
X362222Y596322D02*
X362222Y596322D01*
X362222Y602593D01*
X362556Y602527D01*
X364151Y601866D01*
X365587Y600907D01*
X366807Y599687D01*
X367766Y598251D01*
X368427Y596656D01*
X368493Y596322D01*
X362222Y596322D01*
G37*
%LPD*%
%LPC*%
G36*
X362222Y570922D02*
X362222Y570922D01*
X362222Y577193D01*
X362556Y577127D01*
X364151Y576466D01*
X365587Y575507D01*
X366807Y574287D01*
X367766Y572851D01*
X368427Y571256D01*
X368493Y570922D01*
X362222Y570922D01*
G37*
%LPD*%
%LPC*%
G36*
X286022Y820478D02*
X286022Y820478D01*
X292293Y820478D01*
X292227Y820144D01*
X291566Y818549D01*
X290607Y817113D01*
X289387Y815893D01*
X287951Y814934D01*
X286356Y814273D01*
X286022Y814207D01*
X286022Y820478D01*
G37*
%LPD*%
%LPC*%
G36*
X362222Y566478D02*
X362222Y566478D01*
X368493Y566478D01*
X368427Y566144D01*
X367766Y564549D01*
X366807Y563113D01*
X365587Y561893D01*
X364151Y560934D01*
X362556Y560273D01*
X362222Y560207D01*
X362222Y566478D01*
G37*
%LPD*%
%LPC*%
G36*
X351507Y570922D02*
X351507Y570922D01*
X351573Y571256D01*
X352234Y572851D01*
X353193Y574287D01*
X354413Y575507D01*
X355849Y576466D01*
X357444Y577127D01*
X357778Y577193D01*
X357778Y570922D01*
X351507Y570922D01*
G37*
%LPD*%
%LPC*%
G36*
X275307Y824922D02*
X275307Y824922D01*
X275373Y825256D01*
X276034Y826851D01*
X276993Y828287D01*
X278213Y829507D01*
X279649Y830466D01*
X281244Y831127D01*
X281578Y831193D01*
X281578Y824922D01*
X275307Y824922D01*
G37*
%LPD*%
%LPC*%
G36*
X351507Y824922D02*
X351507Y824922D01*
X351573Y825256D01*
X352234Y826851D01*
X353193Y828287D01*
X354413Y829507D01*
X355849Y830466D01*
X357444Y831127D01*
X357778Y831193D01*
X357778Y824922D01*
X351507Y824922D01*
G37*
%LPD*%
%LPC*%
G36*
X362222Y820478D02*
X362222Y820478D01*
X368493Y820478D01*
X368427Y820144D01*
X367766Y818549D01*
X366807Y817113D01*
X365587Y815893D01*
X364151Y814934D01*
X362556Y814273D01*
X362222Y814207D01*
X362222Y820478D01*
G37*
%LPD*%
%LPC*%
G36*
X275307Y596322D02*
X275307Y596322D01*
X275373Y596656D01*
X276034Y598251D01*
X276993Y599687D01*
X278213Y600907D01*
X279649Y601866D01*
X281244Y602527D01*
X281578Y602593D01*
X281578Y596322D01*
X275307Y596322D01*
G37*
%LPD*%
%LPC*%
G36*
X362222Y591878D02*
X362222Y591878D01*
X368493Y591878D01*
X368427Y591544D01*
X367766Y589949D01*
X366807Y588513D01*
X365587Y587293D01*
X364151Y586334D01*
X362556Y585673D01*
X362222Y585607D01*
X362222Y591878D01*
G37*
%LPD*%
%LPC*%
G36*
X351507Y596322D02*
X351507Y596322D01*
X351573Y596656D01*
X352234Y598251D01*
X353193Y599687D01*
X354413Y600907D01*
X355849Y601866D01*
X357444Y602527D01*
X357778Y602593D01*
X357778Y596322D01*
X351507Y596322D01*
G37*
%LPD*%
%LPC*%
G36*
X286022Y591878D02*
X286022Y591878D01*
X292293Y591878D01*
X292227Y591544D01*
X291566Y589949D01*
X290607Y588513D01*
X289387Y587293D01*
X287951Y586334D01*
X286356Y585673D01*
X286022Y585607D01*
X286022Y591878D01*
G37*
%LPD*%
%LPC*%
G36*
X281244Y814273D02*
X281244Y814273D01*
X279649Y814934D01*
X278213Y815893D01*
X276993Y817113D01*
X276034Y818549D01*
X275373Y820144D01*
X275307Y820478D01*
X281578Y820478D01*
X281578Y814207D01*
X281244Y814273D01*
G37*
%LPD*%
%LPC*%
G36*
X357444Y560273D02*
X357444Y560273D01*
X355849Y560934D01*
X354413Y561893D01*
X353193Y563113D01*
X352234Y564549D01*
X351573Y566144D01*
X351507Y566478D01*
X357778Y566478D01*
X357778Y560207D01*
X357444Y560273D01*
G37*
%LPD*%
%LPC*%
G36*
X357444Y814273D02*
X357444Y814273D01*
X355849Y814934D01*
X354413Y815893D01*
X353193Y817113D01*
X352234Y818549D01*
X351573Y820144D01*
X351507Y820478D01*
X357778Y820478D01*
X357778Y814207D01*
X357444Y814273D01*
G37*
%LPD*%
%LPC*%
G36*
X357444Y585673D02*
X357444Y585673D01*
X355849Y586334D01*
X354413Y587293D01*
X353193Y588513D01*
X352234Y589949D01*
X351573Y591544D01*
X351507Y591878D01*
X357778Y591878D01*
X357778Y585607D01*
X357444Y585673D01*
G37*
%LPD*%
%LPC*%
G36*
X281244Y585673D02*
X281244Y585673D01*
X279649Y586334D01*
X278213Y587293D01*
X276993Y588513D01*
X276034Y589949D01*
X275373Y591544D01*
X275307Y591878D01*
X281578Y591878D01*
X281578Y585607D01*
X281244Y585673D01*
G37*
%LPD*%
%LPC*%
G36*
X209279Y135019D02*
X209279Y135019D01*
X209279Y135021D01*
X209281Y135021D01*
X209281Y135019D01*
X209279Y135019D01*
G37*
%LPD*%
%LPC*%
G36*
X672099Y127399D02*
X672099Y127399D01*
X672099Y127401D01*
X672101Y127401D01*
X672101Y127399D01*
X672099Y127399D01*
G37*
%LPD*%
%LPC*%
G36*
X334279Y135019D02*
X334279Y135019D01*
X334279Y135021D01*
X334281Y135021D01*
X334281Y135019D01*
X334279Y135019D01*
G37*
%LPD*%
%LPC*%
G36*
X547099Y127399D02*
X547099Y127399D01*
X547099Y127401D01*
X547101Y127401D01*
X547101Y127399D01*
X547099Y127399D01*
G37*
%LPD*%
D10*
X537800Y568700D03*
X537800Y594100D03*
X512400Y568700D03*
X512400Y594100D03*
X487000Y568700D03*
X487000Y594100D03*
X461600Y568700D03*
X461600Y594100D03*
X436200Y568700D03*
X436200Y594100D03*
X410800Y568700D03*
X410800Y594100D03*
X385400Y568700D03*
X385400Y594100D03*
X360000Y568700D03*
X360000Y594100D03*
X334600Y568700D03*
X334600Y594100D03*
X309200Y568700D03*
X309200Y594100D03*
X283800Y568700D03*
X283800Y594100D03*
X258400Y568700D03*
X258400Y594100D03*
X233000Y568700D03*
X233000Y594100D03*
X207600Y568700D03*
X207600Y594100D03*
X182200Y568700D03*
X182200Y594100D03*
X156800Y568700D03*
X156800Y594100D03*
X131400Y568700D03*
X131400Y594100D03*
X106000Y568700D03*
X106000Y594100D03*
X537800Y822700D03*
X537800Y848100D03*
X512400Y822700D03*
X512400Y848100D03*
X487000Y822700D03*
X487000Y848100D03*
X461600Y822700D03*
X461600Y848100D03*
X436200Y822700D03*
X436200Y848100D03*
X410800Y822700D03*
X410800Y848100D03*
X385400Y822700D03*
X385400Y848100D03*
X360000Y822700D03*
X360000Y848100D03*
X334600Y822700D03*
X334600Y848100D03*
X309200Y822700D03*
X309200Y848100D03*
X283800Y822700D03*
X283800Y848100D03*
X258400Y822700D03*
X258400Y848100D03*
X233000Y822700D03*
X233000Y848100D03*
X207600Y822700D03*
X207600Y848100D03*
X182200Y822700D03*
X182200Y848100D03*
X156800Y822700D03*
X156800Y848100D03*
X131400Y822700D03*
X131400Y848100D03*
X106000Y822700D03*
X106000Y848100D03*
D11*
X66040Y916940D03*
X66040Y891540D03*
X66040Y866140D03*
X66040Y840740D03*
X66040Y815340D03*
X66040Y789940D03*
X66040Y764540D03*
X66040Y739140D03*
X66040Y713740D03*
X66040Y688340D03*
X66040Y662940D03*
X66040Y637540D03*
X66040Y612140D03*
X66040Y586740D03*
X66040Y561340D03*
X66040Y535940D03*
X66040Y510540D03*
X66040Y485140D03*
X66040Y459740D03*
X66040Y434340D03*
D12*
X66040Y961390D03*
X66040Y389890D03*
X828040Y961390D03*
X828040Y389890D03*
D11*
X749700Y88900D03*
X774700Y88900D03*
X799700Y88900D03*
X89300Y101600D03*
X114300Y101600D03*
X139300Y101600D03*
D13*
X672100Y177400D03*
X672100Y127400D03*
X547100Y127400D03*
X547100Y177400D03*
X334280Y185020D03*
X334280Y135020D03*
X209280Y135020D03*
X209280Y185020D03*
D14*
X756920Y693420D03*
X756920Y668420D03*
X756920Y648420D03*
X756920Y623420D03*
D15*
X784020Y724120D03*
X784020Y592720D03*
D16*
X850900Y1155700D03*
X838200Y38100D03*
X50800Y38100D03*
X50800Y1155700D03*
D17*
X833120Y292100D03*
X184404Y1014476D03*
X415036Y1010158D03*
X291592Y1009396D03*
X381000Y622300D03*
X375920Y139700D03*
X508000Y142240D03*
M02*
