G04 EAGLE Gerber RS-274X export*
G75*
%MOMM*%
%FSLAX34Y34*%
%LPD*%
%INBottom Copper*%
%IPPOS*%
%AMOC8*
5,1,8,0,0,1.08239X$1,22.5*%
G01*
%ADD10R,1.524000X1.524000*%
%ADD11P,1.649562X8X202.500000*%
%ADD12R,1.676400X1.676400*%
%ADD13C,1.676400*%
%ADD14C,4.016000*%
%ADD15C,1.400000*%
%ADD16C,1.960000*%
%ADD17R,1.288000X1.288000*%
%ADD18C,1.288000*%
%ADD19C,3.220000*%
%ADD20C,4.445000*%
%ADD21C,1.016000*%
%ADD22C,0.609600*%
%ADD23C,0.254000*%


D10*
X537800Y568700D03*
D11*
X537800Y594100D03*
X512400Y568700D03*
X512400Y594100D03*
X487000Y568700D03*
X487000Y594100D03*
X461600Y568700D03*
X461600Y594100D03*
X436200Y568700D03*
X436200Y594100D03*
X410800Y568700D03*
X410800Y594100D03*
X385400Y568700D03*
X385400Y594100D03*
X360000Y568700D03*
X360000Y594100D03*
X334600Y568700D03*
X334600Y594100D03*
X309200Y568700D03*
X309200Y594100D03*
X283800Y568700D03*
X283800Y594100D03*
X258400Y568700D03*
X258400Y594100D03*
X233000Y568700D03*
X233000Y594100D03*
X207600Y568700D03*
X207600Y594100D03*
X182200Y568700D03*
X182200Y594100D03*
X156800Y568700D03*
X156800Y594100D03*
X131400Y568700D03*
X131400Y594100D03*
X106000Y568700D03*
X106000Y594100D03*
D10*
X537800Y822700D03*
D11*
X537800Y848100D03*
X512400Y822700D03*
X512400Y848100D03*
X487000Y822700D03*
X487000Y848100D03*
X461600Y822700D03*
X461600Y848100D03*
X436200Y822700D03*
X436200Y848100D03*
X410800Y822700D03*
X410800Y848100D03*
X385400Y822700D03*
X385400Y848100D03*
X360000Y822700D03*
X360000Y848100D03*
X334600Y822700D03*
X334600Y848100D03*
X309200Y822700D03*
X309200Y848100D03*
X283800Y822700D03*
X283800Y848100D03*
X258400Y822700D03*
X258400Y848100D03*
X233000Y822700D03*
X233000Y848100D03*
X207600Y822700D03*
X207600Y848100D03*
X182200Y822700D03*
X182200Y848100D03*
X156800Y822700D03*
X156800Y848100D03*
X131400Y822700D03*
X131400Y848100D03*
X106000Y822700D03*
X106000Y848100D03*
D12*
X66040Y916940D03*
D13*
X66040Y891540D03*
X66040Y866140D03*
X66040Y840740D03*
X66040Y815340D03*
X66040Y789940D03*
X66040Y764540D03*
X66040Y739140D03*
X66040Y713740D03*
X66040Y688340D03*
X66040Y662940D03*
X66040Y637540D03*
X66040Y612140D03*
X66040Y586740D03*
X66040Y561340D03*
X66040Y535940D03*
X66040Y510540D03*
X66040Y485140D03*
X66040Y459740D03*
X66040Y434340D03*
D14*
X66040Y961390D03*
X66040Y389890D03*
X828040Y961390D03*
X828040Y389890D03*
D15*
X749700Y88900D03*
X774700Y88900D03*
X799700Y88900D03*
X89300Y101600D03*
X114300Y101600D03*
X139300Y101600D03*
D16*
X672100Y177400D03*
X672100Y127400D03*
X547100Y127400D03*
X547100Y177400D03*
X334280Y185020D03*
X334280Y135020D03*
X209280Y135020D03*
X209280Y185020D03*
D17*
X756920Y693420D03*
D18*
X756920Y668420D03*
X756920Y648420D03*
X756920Y623420D03*
D19*
X784020Y724120D03*
X784020Y592720D03*
D20*
X850900Y1155700D03*
X838200Y38100D03*
X50800Y38100D03*
X50800Y1155700D03*
D21*
X850900Y101600D03*
X127000Y38100D03*
X850900Y1092200D03*
D22*
X833120Y292100D03*
X184404Y1014476D03*
X415036Y1010158D03*
X291592Y1009396D03*
D23*
X97196Y840740D02*
X66040Y840740D01*
X97196Y840740D02*
X101266Y836670D01*
X171710Y836670D01*
X182200Y826180D01*
X182200Y822700D01*
X97196Y815340D02*
X66040Y815340D01*
X97196Y815340D02*
X101266Y811270D01*
X196170Y811270D01*
X207600Y822700D01*
X200240Y789940D02*
X66040Y789940D01*
X200240Y789940D02*
X233000Y822700D01*
X119780Y617220D02*
X119780Y132080D01*
X89300Y101600D01*
X309410Y619290D02*
X308940Y619760D01*
X309410Y619290D02*
X334600Y594100D01*
X807368Y81280D02*
X804178Y78090D01*
X807368Y81280D02*
X817880Y81280D01*
X760510Y78090D02*
X749700Y88900D01*
X760510Y78090D02*
X804178Y78090D01*
X817880Y81280D02*
X817880Y112174D01*
X788070Y141984D01*
X788070Y430338D01*
X340950Y600450D02*
X340950Y604674D01*
X340950Y600450D02*
X334600Y594100D01*
X340950Y604674D02*
X365434Y629158D01*
X589250Y629158D02*
X788070Y430338D01*
X589250Y629158D02*
X365434Y629158D01*
X129940Y627380D02*
X119780Y617220D01*
X301320Y627380D02*
X308940Y619760D01*
X301320Y627380D02*
X129940Y627380D01*
X114300Y101600D02*
X127000Y88900D01*
X180340Y88900D01*
X180340Y164574D01*
X180610Y164844D01*
X180610Y178356D01*
X180340Y178626D01*
X180340Y548640D01*
X188970Y557270D01*
X269745Y561845D02*
X276600Y568700D01*
X269745Y561845D02*
X269745Y558800D01*
X276600Y568700D02*
X283800Y568700D01*
X269745Y558800D02*
X268215Y557270D01*
X188970Y557270D01*
X708390Y152144D02*
X717944Y142590D01*
X708390Y169510D02*
X309200Y568700D01*
X708390Y169510D02*
X708390Y152144D01*
X717944Y142590D02*
X721010Y142590D01*
X774700Y88900D01*
X134620Y782320D02*
X66040Y713740D01*
X299965Y822700D02*
X309200Y822700D01*
X259585Y782320D02*
X134620Y782320D01*
X259585Y782320D02*
X299965Y822700D01*
D22*
X381000Y622300D03*
X375920Y139700D03*
X508000Y142240D03*
D23*
X334600Y568700D02*
X330445Y568700D01*
X143510Y608070D02*
X143510Y369570D01*
X139300Y365360D01*
X304466Y582670D02*
X297770Y589366D01*
X316475Y582670D02*
X330445Y568700D01*
X297770Y589366D02*
X297770Y601375D01*
X304466Y582670D02*
X316475Y582670D01*
X139300Y365360D02*
X139300Y101600D01*
X334600Y568700D02*
X334600Y577936D01*
X346030Y602570D02*
X355600Y612140D01*
X346030Y589366D02*
X334600Y577936D01*
X346030Y589366D02*
X346030Y602570D01*
X355600Y612140D02*
X594360Y612140D01*
X776210Y430290D02*
X776210Y112390D01*
X799700Y88900D01*
X776210Y430290D02*
X594360Y612140D01*
X150120Y614680D02*
X143510Y608070D01*
X284465Y614680D02*
X297770Y601375D01*
X284465Y614680D02*
X150120Y614680D01*
M02*
