M48
;GenerationSoftware,Autodesk,EAGLE,9.6.2*%
;CreationDate,2024-12-16T04:39:11Z*%
FMAT,2
ICI,OFF
METRIC,TZ,000.000
T9C0.305
T8C0.889
T7C0.920
T6C1.000
T5C1.400
T4C2.300
T3C2.500
T2C3.000
T1C3.175
%
G90
M71
T1
X5080Y115570
X85090Y115570
X83820Y3810
X5080Y3810
T2
X6604Y96139
X6604Y38989
X82804Y96139
X82804Y38989
T3
X82470Y15890
X6430Y17160
X16430Y17160
X72470Y15890
T4
X78402Y72412
X78402Y59272
T5
X67210Y12740
X67210Y17740
X54710Y12740
X54710Y17740
X33428Y18502
X33428Y13502
X20928Y13502
X20928Y18502
T6
X6604Y51054
X6604Y48514
X6604Y45974
X6604Y43434
X6604Y89154
X6604Y76454
X6604Y78994
X74970Y8890
X77470Y8890
X79970Y8890
X8930Y10160
X11430Y10160
X13930Y10160
X6604Y81534
X6604Y84074
X6604Y86614
X6604Y91694
X6604Y73914
X6604Y71374
X6604Y68834
X6604Y53594
X6604Y66294
X6604Y63754
X6604Y61214
X6604Y58674
X6604Y56134
T7
X75692Y69342
X75692Y66842
X75692Y64842
X75692Y62342
T8
X48700Y84810
X46160Y82270
X46160Y84810
X43620Y82270
X43620Y84810
X41080Y82270
X41080Y84810
X38540Y82270
X38540Y84810
X36000Y82270
X36000Y84810
X33460Y82270
X33460Y84810
X28380Y59410
X30920Y84810
X28380Y82270
X28380Y84810
X25840Y82270
X25840Y84810
X23300Y82270
X23300Y84810
X20760Y82270
X20760Y84810
X18220Y82270
X18220Y84810
X15680Y82270
X15680Y84810
X13140Y82270
X13140Y84810
X10600Y82270
X10600Y84810
X48700Y59410
X53780Y56870
X53780Y59410
X51240Y56870
X51240Y59410
X48700Y56870
X46160Y56870
X46160Y59410
X43620Y56870
X43620Y59410
X41080Y56870
X41080Y59410
X38540Y56870
X38540Y59410
X36000Y56870
X36000Y59410
X33460Y56870
X33460Y59410
X30920Y56870
X30920Y59410
X28380Y56870
X25840Y56870
X25840Y59410
X23300Y56870
X30920Y82270
X23300Y59410
X20760Y56870
X20760Y59410
X18220Y56870
X18220Y59410
X15680Y56870
X15680Y59410
X13140Y56870
X13140Y59410
X10600Y56870
X10600Y59410
X53780Y82270
X53780Y84810
X51240Y82270
X51240Y84810
X48700Y82270
T9
X18440Y101448
X83312Y29210
X50800Y14224
X37592Y13970
X38100Y62230
X29159Y100940
X41504Y101016
M30